<svg width="105" height="106" viewBox="0 0 105 106" fill="none" xmlns="http://www.w3.org/2000/svg">
<g clip-path="url(#clip0_151_232)">
<path d="M15.349 29.147C15.28 28.884 15.117 28.672 14.859 28.511C14.689 28.405 14.516 28.347 14.341 28.337C14.166 28.326 14 28.366 13.843 28.454C13.685 28.543 13.549 28.681 13.432 28.867C13.259 29.144 13.201 29.414 13.257 29.677C13.312 29.94 13.471 30.153 13.732 30.317C13.907 30.425 14.083 30.484 14.261 30.494C14.439 30.504 14.609 30.465 14.77 30.379C14.932 30.292 15.07 30.156 15.186 29.97C15.364 29.685 15.419 29.411 15.349 29.147ZM7.393 31.916L7.662 31.339C7.848 30.941 8.038 30.533 8.234 30.114C8.429 29.696 8.624 29.279 8.817 28.865L7.771 28.376L5.632 32.956L6.679 33.444L7.393 31.916ZM13.803 32.193C13.861 31.996 13.901 31.812 13.922 31.639C13.944 31.466 13.946 31.316 13.928 31.189L12.741 30.751C12.782 30.951 12.788 31.151 12.759 31.351C12.73 31.551 12.68 31.727 12.609 31.879C12.437 32.247 12.202 32.467 11.903 32.539C11.604 32.61 11.239 32.545 10.808 32.344L7.161 30.641C6.814 30.479 6.498 30.332 6.213 30.198C5.927 30.065 5.647 29.934 5.372 29.806C5.098 29.678 4.8 29.539 4.478 29.389L4.12 30.851C4.521 31.039 4.913 31.221 5.293 31.399C5.674 31.577 6.088 31.77 6.536 31.979C6.87 32.135 7.204 32.291 7.538 32.447C7.872 32.603 8.208 32.76 8.544 32.917C8.88 33.074 9.216 33.231 9.552 33.388C9.888 33.545 10.224 33.701 10.558 33.857C11.04 34.082 11.47 34.186 11.848 34.17C12.227 34.154 12.56 34.026 12.846 33.786C13.133 33.547 13.378 33.209 13.582 32.774C13.671 32.583 13.744 32.39 13.803 32.193ZM10.249 40.97C9.762 40.825 9.293 40.686 8.844 40.552C8.394 40.418 7.912 40.275 7.398 40.122L5.908 39.679C5.735 39.476 5.586 39.262 5.461 39.035C5.336 38.808 5.253 38.571 5.212 38.325C5.171 38.079 5.189 37.826 5.266 37.567C5.397 37.124 5.611 36.857 5.906 36.764C6.201 36.672 6.591 36.698 7.074 36.841L8.268 37.197C8.764 37.344 9.242 37.486 9.7 37.623C10.159 37.759 10.632 37.9 11.119 38.045L11.547 36.609C11.059 36.464 10.584 36.323 10.121 36.185C9.658 36.047 9.158 35.898 8.621 35.739C8.357 35.66 8.108 35.586 7.873 35.516C7.638 35.446 7.376 35.368 7.085 35.282C6.306 35.05 5.666 35.041 5.165 35.255C4.663 35.468 4.309 35.922 4.103 36.615C3.996 36.973 3.963 37.309 4.004 37.623C4.045 37.937 4.127 38.224 4.251 38.485C4.376 38.746 4.512 38.971 4.66 39.161L4.62 39.296L3.627 39C3.023 38.821 2.446 38.649 1.896 38.485C1.346 38.322 0.805 38.161 0.272 38.002L0 39.484C0.514 39.637 1.036 39.792 1.566 39.95C2.096 40.108 2.641 40.27 3.2 40.436L6.897 41.536C7.447 41.699 7.95 41.849 8.406 41.985C8.863 42.121 9.335 42.261 9.822 42.406L10.249 40.97ZM9.469 44.837C9.467 44.578 9.45 44.342 9.416 44.13C9.382 43.918 9.339 43.728 9.287 43.56L7.948 43.479C8.035 43.666 8.102 43.855 8.148 44.048C8.194 44.24 8.221 44.434 8.229 44.628C8.238 44.823 8.229 45.014 8.202 45.204C8.129 45.722 7.965 46.14 7.708 46.46C7.451 46.78 7.133 47.003 6.752 47.129C6.372 47.254 5.955 47.286 5.502 47.222C4.8 47.124 4.268 46.854 3.908 46.413C3.549 45.971 3.413 45.431 3.502 44.794C3.524 44.637 3.564 44.465 3.62 44.28C3.677 44.095 3.76 43.896 3.87 43.682C3.98 43.469 4.127 43.244 4.311 43.005L3.011 42.696C2.884 42.862 2.766 43.058 2.657 43.283C2.548 43.508 2.453 43.75 2.372 44.01C2.291 44.27 2.231 44.533 2.194 44.801C2.09 45.546 2.159 46.195 2.402 46.749C2.645 47.304 3.02 47.75 3.529 48.088C4.038 48.425 4.637 48.642 5.325 48.738C6.009 48.834 6.641 48.781 7.221 48.579C7.8 48.378 8.283 48.034 8.669 47.549C9.055 47.063 9.301 46.442 9.407 45.683C9.45 45.378 9.47 45.096 9.469 44.837ZM7.576 54.344C7.444 54.556 7.208 54.669 6.868 54.682C6.653 54.69 6.466 54.652 6.306 54.567C6.147 54.482 6.015 54.36 5.911 54.2C5.806 54.041 5.731 53.847 5.685 53.62C5.6 53.227 5.53 52.921 5.475 52.704C5.421 52.486 5.372 52.324 5.331 52.215C5.289 52.107 5.246 52.019 5.202 51.951L6.433 51.904C6.704 52.029 6.936 52.181 7.13 52.361C7.323 52.54 7.474 52.736 7.583 52.949C7.691 53.162 7.75 53.381 7.758 53.605C7.769 53.884 7.708 54.131 7.576 54.344ZM8.77 53.128C8.652 52.855 8.508 52.62 8.337 52.423C8.166 52.227 7.992 52.064 7.814 51.935L7.809 51.802L8.729 51.683L8.678 50.333C8.281 50.348 7.913 50.362 7.573 50.375C7.232 50.388 6.896 50.401 6.565 50.414L5.726 50.446C5.442 50.456 5.134 50.468 4.803 50.481C4.472 50.493 4.194 50.504 3.97 50.512C3.401 50.534 2.942 50.656 2.594 50.88C2.245 51.103 1.996 51.414 1.848 51.812C1.7 52.21 1.636 52.684 1.657 53.234C1.667 53.509 1.692 53.779 1.73 54.044C1.768 54.309 1.818 54.565 1.881 54.812C1.945 55.06 2.013 55.289 2.086 55.501C2.16 55.713 2.235 55.904 2.311 56.074L3.637 55.94C3.521 55.711 3.42 55.487 3.335 55.268C3.249 55.05 3.176 54.84 3.115 54.639C3.053 54.438 3.008 54.246 2.977 54.063C2.947 53.88 2.929 53.709 2.923 53.55C2.911 53.247 2.938 52.974 3.004 52.731C3.069 52.488 3.202 52.296 3.402 52.156C3.602 52.015 3.896 51.947 4.284 51.95L4.684 54.002C4.737 54.275 4.815 54.546 4.918 54.812C5.022 55.079 5.162 55.319 5.338 55.532C5.514 55.745 5.736 55.913 6.005 56.035C6.273 56.158 6.601 56.212 6.988 56.198C7.427 56.181 7.795 56.077 8.094 55.886C8.392 55.695 8.616 55.44 8.765 55.122C8.914 54.803 8.981 54.446 8.966 54.049C8.953 53.709 8.888 53.402 8.77 53.128ZM8.77 57.32C8.276 57.441 7.794 57.558 7.325 57.673C6.856 57.787 6.349 57.911 5.805 58.044C5.538 58.109 5.285 58.171 5.047 58.229C4.809 58.287 4.542 58.352 4.248 58.424C3.477 58.612 2.922 58.916 2.582 59.335C2.243 59.754 2.157 60.31 2.327 61.004C2.417 61.376 2.564 61.693 2.768 61.955C2.971 62.218 3.202 62.434 3.459 62.604C3.717 62.775 3.972 62.913 4.224 63.02L4.258 63.162L5.411 62.658C5.16 62.575 4.924 62.471 4.704 62.347C4.484 62.223 4.296 62.071 4.139 61.891C3.982 61.711 3.873 61.496 3.812 61.246C3.711 60.829 3.765 60.51 3.975 60.288C4.185 60.066 4.535 59.896 5.024 59.776L6.235 59.481C6.738 59.358 7.222 59.24 7.687 59.127C8.152 59.013 8.631 58.896 9.125 58.776L8.77 57.32ZM10.836 65.787C10.342 65.907 9.867 66.023 9.411 66.134C8.956 66.246 8.467 66.365 7.946 66.492L6.436 66.86C6.191 66.781 5.958 66.679 5.738 66.555C5.518 66.431 5.329 66.28 5.17 66.103C5.012 65.925 4.902 65.712 4.841 65.463C4.738 65.041 4.792 64.719 5.002 64.498C5.212 64.276 5.562 64.105 6.052 63.986L7.262 63.69C7.765 63.567 8.249 63.449 8.714 63.336C9.179 63.223 9.658 63.106 10.152 62.985L9.799 61.537C9.305 61.657 8.823 61.775 8.354 61.889C7.885 62.004 7.378 62.127 6.834 62.26C6.566 62.325 6.314 62.387 6.076 62.445C5.838 62.503 5.571 62.568 5.277 62.64C5.127 62.677 4.987 62.717 4.856 62.761C4.725 62.805 4.601 62.853 4.484 62.906L4.473 63.009C3.992 63.223 3.652 63.508 3.454 63.867C3.256 64.225 3.223 64.676 3.355 65.22C3.445 65.587 3.591 65.899 3.792 66.155C3.994 66.41 4.221 66.621 4.472 66.785C4.724 66.949 4.972 67.079 5.215 67.173L5.25 67.316L4.046 67.667L4.432 68.892C4.957 68.763 5.482 68.635 6.006 68.507C6.529 68.38 7.043 68.254 7.546 68.132L8.226 67.966C8.784 67.83 9.294 67.705 9.756 67.592C10.219 67.479 10.697 67.363 11.191 67.242L10.836 65.787ZM8.967 69.816L8.334 70.13L8.401 71.098L10.51 75.216L11.425 74.762L8.967 69.816ZM12.588 69.67C12.425 69.43 12.259 69.22 12.09 69.038C11.922 68.856 11.756 68.706 11.594 68.589L10.453 69.218C10.655 69.363 10.844 69.529 11.021 69.717C11.198 69.906 11.357 70.102 11.497 70.306C11.638 70.509 11.753 70.703 11.845 70.887C12.084 71.368 12.196 71.808 12.181 72.209C12.167 72.61 12.039 72.965 11.797 73.276C11.555 73.586 11.212 73.851 10.769 74.071L10.569 74.171C10.172 74.368 9.788 74.477 9.418 74.497C9.047 74.517 8.715 74.451 8.421 74.3C8.127 74.149 7.9 73.913 7.74 73.591C7.535 73.177 7.509 72.772 7.663 72.375C7.818 71.978 8.152 71.651 8.666 71.396C8.72 71.369 8.779 71.342 8.842 71.316C8.904 71.29 8.969 71.266 9.036 71.243L8.967 69.816C8.832 69.857 8.698 69.906 8.568 69.963C8.437 70.02 8.293 70.088 8.134 70.167C7.54 70.462 7.095 70.814 6.798 71.222C6.5 71.631 6.347 72.079 6.337 72.569C6.328 73.058 6.457 73.572 6.725 74.111C7.034 74.734 7.435 75.197 7.927 75.5C8.418 75.802 8.965 75.946 9.567 75.931C10.17 75.916 10.786 75.751 11.417 75.438C12.057 75.12 12.564 74.721 12.94 74.239C13.316 73.758 13.523 73.2 13.562 72.566C13.602 71.932 13.431 71.232 13.051 70.467C12.906 70.175 12.751 69.909 12.588 69.67ZM14.494 80.102C14.526 80.336 14.507 80.56 14.437 80.772C14.367 80.985 14.23 81.166 14.026 81.314C13.819 81.465 13.603 81.538 13.379 81.531C13.154 81.524 12.944 81.461 12.747 81.342C12.55 81.223 12.382 81.067 12.241 80.875C12.109 80.694 12.014 80.487 11.955 80.256C11.896 80.025 11.897 79.795 11.958 79.565C12.019 79.336 12.168 79.135 12.406 78.961C12.583 78.832 12.761 78.763 12.939 78.754C13.118 78.745 13.29 78.776 13.456 78.845C13.622 78.915 13.776 79.005 13.917 79.115C14.058 79.226 14.181 79.333 14.285 79.436C14.393 79.647 14.462 79.869 14.494 80.102ZM18.626 76.876C18.703 77.057 18.746 77.218 18.754 77.36C18.761 77.501 18.742 77.623 18.694 77.724C18.647 77.825 18.581 77.906 18.498 77.966C18.355 78.071 18.18 78.098 17.974 78.049C17.768 78.001 17.561 77.902 17.352 77.754C17.143 77.606 16.962 77.435 16.808 77.241L16.664 77.043C16.378 76.651 16.181 76.335 16.073 76.096C15.965 75.857 15.925 75.67 15.953 75.534C15.981 75.398 16.055 75.286 16.176 75.198C16.278 75.124 16.441 75.1 16.666 75.127C16.89 75.154 17.145 75.257 17.429 75.437C17.713 75.616 17.994 75.897 18.272 76.277C18.431 76.496 18.549 76.696 18.626 76.876ZM18.432 74.757C18.102 74.466 17.748 74.233 17.372 74.057C16.995 73.881 16.616 73.798 16.236 73.807C15.855 73.816 15.492 73.947 15.145 74.2C14.806 74.447 14.599 74.726 14.525 75.037C14.452 75.348 14.497 75.701 14.66 76.095C14.824 76.49 15.09 76.94 15.459 77.445L15.632 77.683C15.819 77.939 15.959 78.155 16.052 78.33C16.144 78.505 16.194 78.648 16.2 78.759C16.206 78.87 16.164 78.958 16.073 79.024C15.945 79.118 15.784 79.101 15.59 78.974C15.396 78.847 15.123 78.632 14.769 78.329C14.429 78.029 14.079 77.799 13.72 77.639C13.361 77.479 12.995 77.415 12.623 77.447C12.25 77.479 11.876 77.633 11.498 77.908C11.174 78.144 10.935 78.422 10.782 78.742C10.628 79.062 10.581 79.429 10.64 79.842L11.437 79.772C11.179 79.417 10.925 79.07 10.676 78.728C10.427 78.387 10.171 78.036 9.907 77.674L9.036 78.309L10.253 79.977C10.418 80.203 10.546 80.401 10.638 80.571C10.73 80.741 10.819 80.904 10.905 81.061C10.99 81.218 11.102 81.391 11.239 81.579C11.591 82.062 11.969 82.416 12.373 82.641C12.777 82.866 13.183 82.966 13.592 82.94C14 82.913 14.383 82.77 14.741 82.508C15.017 82.308 15.224 82.089 15.363 81.852C15.502 81.615 15.593 81.38 15.638 81.148C15.683 80.916 15.699 80.701 15.687 80.502C15.674 80.303 15.653 80.143 15.622 80.021L15.718 79.951C15.901 80.06 16.075 80.13 16.241 80.163C16.406 80.195 16.562 80.194 16.71 80.159C16.857 80.123 16.995 80.059 17.123 79.965C17.297 79.839 17.415 79.698 17.478 79.542C17.54 79.387 17.57 79.242 17.568 79.108C17.566 78.974 17.552 78.87 17.527 78.796L17.623 78.726C17.746 78.815 17.914 78.907 18.126 79C18.339 79.094 18.573 79.139 18.828 79.138C19.084 79.136 19.338 79.043 19.591 78.859C19.753 78.74 19.887 78.589 19.993 78.405C20.098 78.222 20.153 78 20.157 77.74C20.161 77.48 20.097 77.182 19.964 76.845C19.831 76.509 19.612 76.131 19.307 75.713C19.054 75.366 18.762 75.047 18.432 74.757ZM24.284 85.152C23.946 85.533 23.622 85.899 23.31 86.249C22.999 86.6 22.665 86.976 22.309 87.378L21.278 88.54C21.021 88.612 20.763 88.656 20.505 88.673C20.246 88.69 19.997 88.665 19.757 88.599C19.516 88.532 19.295 88.409 19.092 88.229C18.747 87.923 18.595 87.616 18.636 87.309C18.677 87.003 18.865 86.661 19.199 86.284L20.026 85.352C20.37 84.965 20.701 84.592 21.018 84.234C21.336 83.876 21.663 83.507 22.001 83.127L20.88 82.133C20.543 82.513 20.214 82.884 19.893 83.245C19.573 83.606 19.226 83.997 18.855 84.415C18.672 84.621 18.499 84.816 18.337 84.999C18.174 85.182 17.992 85.387 17.791 85.614C17.252 86.222 16.973 86.798 16.954 87.343C16.936 87.888 17.197 88.4 17.738 88.88C18.035 89.144 18.343 89.327 18.663 89.43C18.983 89.533 19.299 89.584 19.609 89.582C19.92 89.58 20.203 89.548 20.457 89.487L20.567 89.584L19.772 90.564L20.786 91.351C21.145 90.946 21.504 90.542 21.862 90.139C22.219 89.736 22.57 89.341 22.914 88.953L23.379 88.43C23.76 88 24.108 87.607 24.424 87.251C24.74 86.895 25.067 86.527 25.404 86.147L24.284 85.152ZM24.735 89.63L24.361 90.229L24.925 91.019L28.879 93.421L29.42 92.554L24.735 89.63ZM27.743 87.608C27.478 87.49 27.226 87.397 26.988 87.33C26.749 87.264 26.529 87.223 26.329 87.208L25.687 88.343C25.935 88.36 26.184 88.402 26.433 88.47C26.683 88.537 26.92 88.621 27.147 88.721C27.373 88.821 27.573 88.926 27.748 89.034C28.203 89.319 28.529 89.635 28.727 89.984C28.924 90.333 29.001 90.703 28.958 91.094C28.915 91.485 28.762 91.89 28.5 92.31L28.382 92.5C28.147 92.876 27.877 93.17 27.572 93.381C27.267 93.592 26.949 93.71 26.62 93.736C26.291 93.761 25.974 93.679 25.669 93.488C25.277 93.244 25.042 92.912 24.966 92.493C24.889 92.073 25.003 91.62 25.307 91.133C25.339 91.082 25.375 91.029 25.415 90.974C25.454 90.919 25.497 90.864 25.542 90.81L24.735 89.63C24.641 89.736 24.554 89.848 24.473 89.965C24.391 90.082 24.304 90.216 24.21 90.366C23.859 90.928 23.664 91.461 23.624 91.965C23.585 92.468 23.69 92.931 23.938 93.353C24.186 93.774 24.566 94.145 25.076 94.464C25.666 94.832 26.25 95.016 26.827 95.016C27.404 95.016 27.946 94.852 28.451 94.524C28.956 94.195 29.395 93.732 29.768 93.134C30.146 92.529 30.369 91.922 30.437 91.316C30.505 90.709 30.389 90.125 30.09 89.564C29.791 89.004 29.279 88.497 28.555 88.045C28.278 87.872 28.007 87.726 27.743 87.608ZM32.189 90.464L31.747 91.546C32.023 91.659 32.321 91.781 32.641 91.911C32.961 92.042 33.273 92.17 33.577 92.294C33.882 92.418 34.146 92.527 34.371 92.618L35.861 93.227V92.819L32.931 94.533C32.614 94.716 32.284 94.907 31.94 95.107C31.596 95.307 31.263 95.501 30.939 95.689C30.615 95.877 30.33 96.044 30.084 96.19L29.758 96.987L35.143 99.187L35.582 98.111C35.284 97.99 34.968 97.86 34.633 97.724C34.298 97.587 33.976 97.455 33.668 97.329C33.359 97.203 33.094 97.095 32.874 97.005L31.513 96.449L31.509 96.977L34.503 95.22C34.96 94.953 35.445 94.669 35.959 94.367C36.473 94.066 36.998 93.757 37.535 93.442L37.813 92.762L32.189 90.464ZM40.856 93.583C40.723 94.074 40.596 94.546 40.473 94.999C40.351 95.451 40.219 95.937 40.079 96.455L39.803 97.475C39.605 97.779 39.407 98.015 39.209 98.181C39.012 98.348 38.822 98.462 38.638 98.523C38.455 98.585 38.282 98.612 38.12 98.604C37.957 98.597 37.813 98.576 37.687 98.541C37.525 98.498 37.382 98.452 37.26 98.404C37.138 98.357 37.001 98.298 36.851 98.228L36.335 99.626C36.436 99.697 36.548 99.758 36.669 99.811C36.79 99.863 36.91 99.905 37.027 99.936C37.234 99.993 37.466 100.018 37.724 100.013C37.982 100.007 38.253 99.935 38.537 99.794C38.822 99.654 39.108 99.409 39.395 99.062L39.53 99.098L39.226 100.437L40.485 100.691C40.626 100.168 40.767 99.647 40.908 99.127C41.049 98.606 41.187 98.096 41.322 97.596L41.505 96.92C41.655 96.366 41.792 95.86 41.916 95.4C42.041 94.941 42.169 94.465 42.302 93.974L40.856 93.583ZM43.178 97.477L43.097 98.179L43.945 98.649L48.549 99.119L48.665 98.104L43.178 97.477ZM45.024 94.359C44.735 94.366 44.468 94.39 44.223 94.433C43.979 94.475 43.763 94.533 43.576 94.605L43.484 95.905C43.715 95.814 43.958 95.746 44.212 95.7C44.466 95.654 44.717 95.627 44.965 95.62C45.212 95.613 45.438 95.62 45.642 95.645C46.175 95.706 46.606 95.851 46.934 96.081C47.262 96.311 47.491 96.612 47.62 96.984C47.749 97.356 47.785 97.787 47.729 98.279L47.704 98.501C47.653 98.942 47.536 99.323 47.351 99.645C47.166 99.966 46.931 100.21 46.644 100.374C46.357 100.539 46.036 100.601 45.679 100.56C45.22 100.507 44.865 100.308 44.616 99.963C44.367 99.617 44.275 99.159 44.34 98.589C44.347 98.529 44.356 98.465 44.369 98.398C44.381 98.332 44.396 98.264 44.413 98.196L43.178 97.477C43.139 97.613 43.107 97.752 43.084 97.892C43.061 98.033 43.04 98.191 43.019 98.367C42.944 99.026 42.997 99.591 43.178 100.062C43.359 100.534 43.652 100.907 44.058 101.181C44.463 101.455 44.965 101.627 45.563 101.695C46.254 101.774 46.86 101.689 47.382 101.441C47.903 101.193 48.321 100.812 48.636 100.299C48.951 99.785 49.148 99.178 49.228 98.478C49.309 97.769 49.25 97.126 49.051 96.549C48.851 95.972 48.496 95.494 47.985 95.116C47.474 94.739 46.794 94.501 45.945 94.404C45.621 94.367 45.314 94.352 45.024 94.359ZM52.487 99.371L52.61 100.759L58.495 100.236L58.372 98.849L52.487 99.371ZM57.478 94.564C57.527 95.112 57.574 95.64 57.619 96.147C57.664 96.653 57.714 97.216 57.769 97.834L58.066 101.181C58.122 101.813 58.173 102.387 58.219 102.903C58.265 103.419 58.312 103.954 58.361 104.507L60 104.361C59.951 103.808 59.903 103.274 59.858 102.758C59.812 102.242 59.761 101.668 59.705 101.035L59.407 97.689C59.352 97.07 59.303 96.508 59.258 96.001C59.213 95.495 59.166 94.967 59.117 94.418L57.478 94.564ZM51.015 95.138C51.064 95.686 51.11 96.214 51.155 96.721C51.2 97.227 51.25 97.79 51.305 98.408L51.602 101.755C51.659 102.387 51.71 102.961 51.755 103.477C51.801 103.993 51.849 104.528 51.898 105.081L53.536 104.935C53.487 104.382 53.44 103.848 53.394 103.332C53.348 102.816 53.297 102.242 53.241 101.609L52.944 98.263C52.889 97.644 52.839 97.082 52.794 96.575C52.749 96.069 52.702 95.541 52.653 94.992L51.015 95.138ZM67.226 91.978C67.395 92.458 67.557 92.919 67.713 93.362C67.869 93.804 68.036 94.278 68.214 94.784L68.73 96.25C68.669 96.51 68.582 96.756 68.472 96.991C68.361 97.225 68.219 97.431 68.044 97.609C67.869 97.787 67.654 97.921 67.399 98.011C66.963 98.164 66.621 98.148 66.373 97.964C66.125 97.779 65.917 97.449 65.75 96.974L65.336 95.798C65.163 95.31 64.998 94.84 64.839 94.389C64.68 93.938 64.516 93.472 64.347 92.992L62.934 93.49C63.103 93.97 63.268 94.437 63.428 94.893C63.589 95.349 63.762 95.84 63.948 96.369C64.04 96.628 64.126 96.874 64.208 97.105C64.289 97.336 64.38 97.594 64.481 97.881C64.751 98.646 65.119 99.17 65.587 99.45C66.054 99.731 66.629 99.751 67.311 99.511C67.685 99.379 67.995 99.198 68.241 98.968C68.486 98.738 68.683 98.487 68.832 98.214C68.981 97.942 69.09 97.679 69.16 97.427L69.299 97.379L69.77 98.548L70.95 98.044C70.77 97.533 70.591 97.024 70.412 96.515C70.233 96.007 70.057 95.508 69.885 95.02L69.653 94.359C69.462 93.818 69.288 93.323 69.13 92.874C68.971 92.425 68.808 91.96 68.639 91.481L67.226 91.978ZM74.597 89.873C74.978 89.916 75.327 90.058 75.645 90.298C75.963 90.538 76.228 90.837 76.439 91.195C76.665 91.576 76.801 91.961 76.849 92.347C76.896 92.734 76.84 93.095 76.683 93.429C76.526 93.763 76.256 94.043 75.874 94.269C75.521 94.478 75.165 94.576 74.808 94.562C74.45 94.549 74.11 94.432 73.788 94.214C73.466 93.994 73.183 93.678 72.939 93.264C72.727 92.907 72.591 92.532 72.53 92.14C72.469 91.748 72.508 91.376 72.648 91.025C72.787 90.675 73.05 90.385 73.435 90.157C73.829 89.924 74.216 89.83 74.597 89.873ZM71.406 90.458C71.115 91.007 70.99 91.592 71.032 92.212C71.073 92.833 71.271 93.442 71.625 94.041C71.886 94.483 72.195 94.853 72.55 95.153C72.906 95.452 73.297 95.667 73.724 95.797C74.151 95.927 74.601 95.957 75.075 95.888C75.549 95.819 76.034 95.639 76.528 95.347C77.175 94.964 77.647 94.502 77.944 93.96C78.242 93.418 78.373 92.842 78.337 92.232C78.302 91.621 78.107 91.017 77.753 90.418C77.506 90 77.206 89.64 76.853 89.336C76.5 89.032 76.107 88.809 75.673 88.667C75.239 88.525 74.779 88.482 74.291 88.537C73.803 88.592 73.302 88.772 72.788 89.076C72.157 89.449 71.697 89.91 71.406 90.458ZM78.304 85.564C78.509 86.056 78.726 86.573 78.955 87.115C79.183 87.658 79.398 88.165 79.598 88.636L80.887 91.703C81.035 92.053 81.194 92.431 81.365 92.838C81.536 93.245 81.709 93.656 81.884 94.071C82.059 94.487 82.229 94.889 82.395 95.279L83.714 94.109C83.414 93.426 83.105 92.724 82.786 92.003C82.467 91.281 82.161 90.586 81.867 89.917L80.198 86.138L80.303 86.046L83.827 88.15C84.44 88.517 85.095 88.91 85.794 89.329C86.493 89.747 87.153 90.14 87.772 90.508L89.133 89.3C88.769 89.093 88.387 88.876 87.989 88.649C87.591 88.422 87.201 88.199 86.817 87.981C86.433 87.764 86.077 87.56 85.748 87.372L82.87 85.743C82.428 85.491 81.948 85.219 81.428 84.925C80.909 84.631 80.42 84.353 79.963 84.091L78.304 85.564ZM88.45 74.009C88.532 74.269 88.705 74.473 88.97 74.621C89.145 74.719 89.321 74.769 89.496 74.77C89.671 74.772 89.836 74.725 89.988 74.629C90.141 74.532 90.271 74.388 90.378 74.197C90.537 73.912 90.583 73.639 90.514 73.379C90.446 73.119 90.277 72.914 90.009 72.763C89.829 72.663 89.65 72.612 89.472 72.612C89.293 72.612 89.126 72.657 88.969 72.751C88.812 72.845 88.68 72.988 88.573 73.18C88.409 73.473 88.368 73.749 88.45 74.009ZM96.284 71.023L96.029 71.607C95.853 72.009 95.673 72.421 95.488 72.845C95.302 73.268 95.118 73.689 94.935 74.108L95.993 74.571L98.019 69.941L96.961 69.478L96.284 71.023ZM89.869 70.903C89.816 71.101 89.781 71.286 89.763 71.46C89.746 71.633 89.748 71.783 89.769 71.909L90.966 72.318C90.92 72.12 90.909 71.92 90.933 71.719C90.957 71.518 91.003 71.341 91.071 71.187C91.233 70.815 91.463 70.59 91.76 70.511C92.057 70.432 92.423 70.488 92.859 70.679L96.547 72.292C96.897 72.445 97.217 72.585 97.506 72.711C97.794 72.837 98.077 72.961 98.355 73.083C98.633 73.204 98.935 73.336 99.26 73.479L99.582 72.008C99.176 71.83 98.781 71.657 98.396 71.488C98.011 71.32 97.592 71.137 97.139 70.939C96.801 70.791 96.463 70.643 96.126 70.495C95.788 70.348 95.449 70.199 95.109 70.051C94.769 69.902 94.429 69.753 94.089 69.605C93.75 69.456 93.411 69.308 93.073 69.16C92.586 68.947 92.153 68.853 91.775 68.879C91.397 68.904 91.067 69.04 90.786 69.287C90.506 69.533 90.269 69.876 90.076 70.317C89.992 70.509 89.923 70.704 89.869 70.903ZM93.156 62.023C93.647 62.156 94.119 62.284 94.572 62.406C95.024 62.529 95.51 62.66 96.028 62.8L97.528 63.206C97.706 63.404 97.861 63.615 97.991 63.839C98.121 64.063 98.21 64.297 98.258 64.542C98.305 64.787 98.293 65.04 98.223 65.302C98.102 65.748 97.895 66.02 97.602 66.12C97.309 66.22 96.92 66.204 96.433 66.072L95.23 65.746C94.73 65.611 94.25 65.481 93.788 65.356C93.326 65.231 92.85 65.102 92.359 64.969L91.967 66.415C92.458 66.548 92.937 66.678 93.403 66.804C93.87 66.93 94.373 67.066 94.914 67.213C95.179 67.284 95.43 67.352 95.667 67.416C95.903 67.48 96.168 67.552 96.461 67.631C97.245 67.843 97.885 67.836 98.381 67.611C98.877 67.385 99.22 66.923 99.409 66.224C99.506 65.864 99.531 65.527 99.483 65.215C99.434 64.902 99.345 64.616 99.214 64.359C99.083 64.101 98.941 63.879 98.789 63.693L98.825 63.557L99.825 63.828C100.433 63.993 101.014 64.15 101.568 64.3C102.122 64.45 102.667 64.597 103.204 64.742L103.439 63.254C102.921 63.114 102.396 62.972 101.862 62.827C101.328 62.683 100.779 62.534 100.216 62.382L96.493 61.375C95.939 61.225 95.432 61.087 94.973 60.963C94.514 60.839 94.038 60.71 93.547 60.577L93.156 62.023ZM93.83 58.135C93.844 58.394 93.874 58.628 93.918 58.838C93.963 59.049 94.015 59.236 94.076 59.401L95.417 59.414C95.32 59.232 95.244 59.046 95.189 58.856C95.133 58.666 95.096 58.475 95.078 58.281C95.06 58.087 95.06 57.895 95.078 57.705C95.124 57.184 95.267 56.757 95.507 56.425C95.748 56.093 96.055 55.854 96.428 55.709C96.802 55.564 97.216 55.512 97.672 55.553C98.379 55.615 98.923 55.858 99.305 56.281C99.686 56.704 99.849 57.236 99.792 57.877C99.778 58.035 99.747 58.208 99.7 58.396C99.653 58.584 99.58 58.787 99.481 59.006C99.382 59.224 99.246 59.457 99.074 59.704L100.388 59.947C100.506 59.775 100.614 59.574 100.712 59.343C100.81 59.113 100.893 58.866 100.961 58.603C101.029 58.339 101.074 58.073 101.098 57.803C101.165 57.055 101.063 56.41 100.792 55.868C100.522 55.327 100.124 54.9 99.599 54.589C99.074 54.277 98.465 54.091 97.772 54.029C97.084 53.968 96.456 54.053 95.887 54.284C95.319 54.514 94.854 54.882 94.493 55.386C94.132 55.891 93.917 56.524 93.85 57.286C93.823 57.593 93.815 57.876 93.83 58.135ZM95.387 48.576C95.514 48.36 95.747 48.241 96.087 48.219C96.301 48.206 96.489 48.239 96.651 48.32C96.813 48.401 96.948 48.52 97.056 48.677C97.164 48.834 97.244 49.025 97.295 49.251C97.39 49.642 97.468 49.946 97.529 50.162C97.589 50.378 97.641 50.539 97.685 50.647C97.73 50.754 97.775 50.841 97.821 50.908L96.592 50.986C96.318 50.868 96.082 50.721 95.884 50.547C95.685 50.372 95.529 50.18 95.416 49.97C95.302 49.76 95.238 49.543 95.224 49.319C95.206 49.04 95.26 48.792 95.387 48.576ZM94.224 49.821C94.349 50.091 94.499 50.322 94.675 50.515C94.851 50.707 95.029 50.865 95.21 50.989L95.219 51.122L94.302 51.264L94.387 52.613C94.783 52.587 95.151 52.564 95.491 52.543C95.831 52.521 96.166 52.5 96.497 52.479L97.335 52.426C97.619 52.408 97.927 52.388 98.257 52.367C98.588 52.346 98.865 52.329 99.089 52.315C99.657 52.279 100.113 52.145 100.456 51.912C100.799 51.68 101.039 51.363 101.177 50.962C101.316 50.56 101.367 50.085 101.333 49.535C101.315 49.26 101.284 48.991 101.239 48.727C101.194 48.464 101.137 48.209 101.068 47.963C100.999 47.717 100.925 47.489 100.846 47.279C100.767 47.069 100.687 46.88 100.607 46.712L99.285 46.88C99.406 47.106 99.513 47.328 99.604 47.544C99.694 47.76 99.773 47.968 99.84 48.167C99.906 48.367 99.957 48.557 99.992 48.74C100.026 48.922 100.049 49.093 100.059 49.251C100.078 49.554 100.059 49.827 99.999 50.072C99.939 50.317 99.812 50.512 99.615 50.658C99.418 50.803 99.126 50.879 98.739 50.885L98.287 48.844C98.227 48.572 98.143 48.304 98.032 48.04C97.922 47.776 97.776 47.539 97.595 47.331C97.413 47.123 97.186 46.961 96.915 46.845C96.643 46.729 96.314 46.683 95.928 46.707C95.49 46.735 95.124 46.848 94.831 47.047C94.537 47.245 94.32 47.506 94.179 47.828C94.038 48.15 93.98 48.509 94.005 48.905C94.027 49.245 94.1 49.55 94.224 49.821ZM94.379 41.215C94.529 40.892 94.761 40.624 95.076 40.411C95.392 40.197 95.746 40.042 96.141 39.945C96.553 39.845 96.947 39.821 97.323 39.873C97.698 39.926 98.021 40.063 98.292 40.285C98.562 40.507 98.748 40.827 98.85 41.244C98.901 41.453 98.92 41.664 98.908 41.879C98.895 42.093 98.849 42.299 98.77 42.496C98.691 42.693 98.575 42.875 98.424 43.041L95.677 43.712C95.448 43.643 95.243 43.548 95.059 43.427C94.876 43.306 94.72 43.155 94.592 42.975C94.464 42.795 94.371 42.582 94.311 42.337C94.207 41.911 94.23 41.537 94.379 41.215ZM93.248 42.957C93.394 43.19 93.572 43.393 93.782 43.565C93.992 43.737 94.234 43.881 94.507 43.997L94.537 44.12L93.645 44.424L93.951 45.675C94.445 45.554 94.923 45.438 95.386 45.325C95.848 45.212 96.358 45.088 96.916 44.951L100.663 44.037C101.275 43.888 101.859 43.745 102.414 43.61C102.969 43.474 103.519 43.34 104.063 43.207L103.551 41.79C103.03 41.917 102.501 42.047 101.964 42.178C101.426 42.309 100.874 42.443 100.308 42.582L99.628 42.748L99.594 42.612C99.736 42.443 99.851 42.246 99.941 42.023C100.03 41.799 100.083 41.553 100.099 41.285C100.116 41.017 100.088 40.736 100.016 40.441C99.868 39.833 99.587 39.354 99.175 39.003C98.763 38.652 98.262 38.432 97.674 38.343C97.085 38.253 96.458 38.29 95.791 38.453C95.161 38.607 94.6 38.853 94.109 39.191C93.617 39.53 93.257 39.949 93.029 40.449C92.8 40.949 92.763 41.517 92.918 42.151C92.992 42.455 93.102 42.724 93.248 42.957ZM95.135 37.18L95.783 36.897L95.764 35.927L93.858 31.711L92.922 32.12L95.135 37.18ZM91.512 37.15C91.663 37.397 91.819 37.615 91.978 37.805C92.138 37.995 92.296 38.153 92.452 38.278L93.623 37.705C93.428 37.55 93.247 37.375 93.079 37.178C92.912 36.982 92.763 36.778 92.633 36.568C92.502 36.357 92.396 36.158 92.314 35.97C92.099 35.478 92.008 35.033 92.042 34.633C92.076 34.234 92.222 33.885 92.478 33.587C92.735 33.288 93.09 33.04 93.543 32.842L93.748 32.752C94.154 32.574 94.543 32.485 94.914 32.483C95.285 32.481 95.614 32.563 95.9 32.728C96.186 32.893 96.401 33.14 96.545 33.469C96.73 33.893 96.736 34.299 96.563 34.688C96.389 35.077 96.039 35.387 95.513 35.617C95.458 35.641 95.398 35.665 95.334 35.688C95.27 35.71 95.205 35.732 95.137 35.751L95.135 37.18C95.273 37.146 95.408 37.103 95.542 37.052C95.675 37.002 95.823 36.941 95.985 36.87C96.592 36.604 97.054 36.275 97.371 35.881C97.688 35.488 97.863 35.047 97.897 34.559C97.93 34.071 97.826 33.551 97.585 32.999C97.306 32.362 96.929 31.88 96.452 31.554C95.976 31.228 95.437 31.057 94.834 31.043C94.232 31.029 93.608 31.163 92.963 31.445C92.309 31.732 91.782 32.106 91.383 32.568C90.984 33.03 90.75 33.577 90.68 34.209C90.61 34.841 90.746 35.548 91.088 36.33C91.219 36.629 91.361 36.903 91.512 37.15ZM90.265 26.65C90.25 26.415 90.285 26.193 90.371 25.986C90.456 25.779 90.605 25.609 90.819 25.475C91.037 25.339 91.257 25.283 91.481 25.306C91.704 25.329 91.909 25.407 92.097 25.54C92.285 25.673 92.442 25.841 92.568 26.042C92.686 26.232 92.767 26.445 92.809 26.68C92.851 26.915 92.833 27.145 92.756 27.369C92.679 27.593 92.516 27.783 92.266 27.939C92.08 28.055 91.898 28.111 91.719 28.107C91.541 28.103 91.371 28.06 91.21 27.979C91.05 27.898 90.903 27.797 90.77 27.676C90.637 27.556 90.522 27.44 90.426 27.33C90.334 27.112 90.28 26.886 90.265 26.65ZM85.912 29.57C85.848 29.384 85.817 29.221 85.819 29.079C85.822 28.937 85.85 28.818 85.905 28.72C85.96 28.623 86.031 28.547 86.118 28.493C86.268 28.399 86.444 28.384 86.646 28.447C86.848 28.511 87.048 28.624 87.246 28.787C87.444 28.949 87.612 29.133 87.751 29.338L87.881 29.546C88.138 29.958 88.311 30.286 88.402 30.533C88.492 30.779 88.519 30.969 88.481 31.102C88.443 31.236 88.361 31.342 88.234 31.421C88.128 31.488 87.963 31.5 87.741 31.457C87.519 31.414 87.273 31.292 87.002 31.093C86.732 30.893 86.472 30.593 86.222 30.193C86.079 29.964 85.975 29.756 85.912 29.57ZM85.953 31.698C86.261 32.012 86.597 32.27 86.96 32.473C87.323 32.675 87.695 32.786 88.075 32.804C88.455 32.823 88.827 32.718 89.191 32.491C89.547 32.268 89.773 32.005 89.869 31.7C89.965 31.396 89.946 31.04 89.811 30.635C89.676 30.23 89.443 29.762 89.112 29.231L88.956 28.982C88.788 28.713 88.664 28.487 88.584 28.306C88.504 28.125 88.465 27.979 88.467 27.868C88.469 27.756 88.518 27.671 88.613 27.612C88.747 27.528 88.907 27.556 89.091 27.697C89.275 27.838 89.533 28.072 89.863 28.399C90.181 28.723 90.514 28.978 90.86 29.163C91.207 29.348 91.567 29.438 91.941 29.433C92.314 29.428 92.699 29.302 93.095 29.055C93.436 28.843 93.694 28.582 93.87 28.274C94.046 27.966 94.12 27.604 94.091 27.187L93.291 27.2C93.523 27.572 93.751 27.938 93.974 28.296C94.198 28.654 94.429 29.023 94.666 29.403L95.58 28.833L94.487 27.081C94.338 26.843 94.225 26.637 94.145 26.461C94.065 26.285 93.989 26.115 93.915 25.953C93.84 25.79 93.742 25.609 93.618 25.412C93.302 24.905 92.95 24.525 92.564 24.271C92.177 24.017 91.779 23.889 91.37 23.886C90.961 23.882 90.568 23.998 90.192 24.233C89.903 24.413 89.681 24.617 89.525 24.843C89.369 25.07 89.261 25.297 89.2 25.525C89.138 25.753 89.107 25.967 89.105 26.166C89.103 26.365 89.113 26.527 89.135 26.65L89.034 26.714C88.859 26.592 88.69 26.509 88.528 26.464C88.365 26.42 88.209 26.41 88.06 26.435C87.91 26.459 87.768 26.514 87.633 26.598C87.451 26.711 87.323 26.844 87.249 26.994C87.175 27.145 87.135 27.287 87.128 27.421C87.12 27.554 87.128 27.659 87.147 27.735L87.046 27.798C86.929 27.7 86.769 27.597 86.563 27.488C86.358 27.38 86.128 27.317 85.873 27.301C85.618 27.284 85.357 27.358 85.092 27.524C84.922 27.63 84.777 27.771 84.659 27.947C84.54 28.123 84.47 28.34 84.447 28.599C84.424 28.858 84.467 29.16 84.575 29.505C84.683 29.85 84.875 30.242 85.149 30.682C85.376 31.046 85.644 31.385 85.953 31.698ZM80.772 20.987C81.127 20.623 81.469 20.273 81.796 19.937C82.124 19.602 82.475 19.242 82.85 18.858L83.936 17.746C84.196 17.687 84.455 17.655 84.714 17.65C84.973 17.646 85.221 17.682 85.458 17.76C85.695 17.838 85.91 17.972 86.104 18.161C86.434 18.484 86.572 18.797 86.516 19.101C86.46 19.406 86.256 19.738 85.904 20.099L85.034 20.99C84.672 21.361 84.324 21.717 83.99 22.06C83.655 22.402 83.311 22.755 82.955 23.119L84.027 24.165C84.382 23.802 84.729 23.447 85.066 23.101C85.404 22.756 85.768 22.382 86.159 21.982C86.352 21.785 86.533 21.599 86.705 21.423C86.876 21.248 87.067 21.052 87.279 20.835C87.847 20.254 88.152 19.692 88.197 19.148C88.242 18.605 88.005 18.08 87.488 17.575C87.221 17.314 86.939 17.129 86.642 17.018C86.345 16.908 86.053 16.847 85.764 16.836C85.475 16.824 85.212 16.84 84.975 16.882L84.875 16.785L85.598 16.043C86.039 15.593 86.459 15.162 86.86 14.751C87.261 14.34 87.656 13.937 88.044 13.539L86.859 12.608C86.484 12.992 86.104 13.382 85.718 13.777C85.331 14.173 84.934 14.579 84.527 14.997L81.832 17.756C81.431 18.167 81.064 18.543 80.732 18.883C80.399 19.224 80.055 19.576 79.7 19.94L80.772 20.987ZM77.728 18.477C77.958 18.598 78.174 18.694 78.377 18.764C78.58 18.834 78.767 18.886 78.94 18.919L79.643 17.777C79.437 17.766 79.239 17.735 79.047 17.685C78.855 17.635 78.672 17.567 78.497 17.483C78.322 17.398 78.157 17.3 78.002 17.187C77.58 16.879 77.288 16.536 77.127 16.159C76.966 15.782 76.92 15.396 76.989 15.001C77.057 14.606 77.226 14.224 77.496 13.855C77.914 13.282 78.402 12.94 78.961 12.831C79.52 12.722 80.06 12.857 80.58 13.237C80.708 13.33 80.841 13.445 80.978 13.583C81.114 13.72 81.251 13.887 81.387 14.085C81.523 14.282 81.653 14.518 81.776 14.793L82.661 13.793C82.575 13.602 82.458 13.406 82.311 13.204C82.164 13.001 81.995 12.803 81.805 12.609C81.614 12.415 81.409 12.238 81.191 12.079C80.584 11.636 79.978 11.391 79.375 11.344C78.771 11.296 78.2 11.417 77.663 11.707C77.125 11.996 76.652 12.422 76.242 12.984C75.835 13.542 75.584 14.124 75.488 14.73C75.393 15.336 75.468 15.924 75.714 16.493C75.96 17.062 76.392 17.573 77.011 18.024C77.26 18.205 77.499 18.356 77.728 18.477ZM72.576 14.758C73.018 14.77 73.397 14.669 73.712 14.455C74.026 14.241 74.279 13.942 74.47 13.558C74.661 13.173 74.735 12.835 74.693 12.543C74.65 12.251 74.515 11.965 74.287 11.685C74.059 11.405 73.764 11.099 73.402 10.768C73.109 10.508 72.895 10.292 72.759 10.12C72.622 9.948 72.546 9.795 72.529 9.662C72.512 9.528 72.539 9.391 72.609 9.249C72.699 9.069 72.814 8.948 72.954 8.885C73.095 8.822 73.248 8.804 73.414 8.832C73.58 8.86 73.745 8.914 73.908 8.995C74.05 9.066 74.213 9.172 74.399 9.313C74.584 9.455 74.768 9.622 74.951 9.814C75.134 10.007 75.291 10.211 75.423 10.428L76.134 9.265C76.021 9.115 75.874 8.952 75.693 8.776C75.512 8.6 75.303 8.426 75.066 8.253C74.829 8.081 74.572 7.926 74.296 7.789C73.644 7.465 73.041 7.373 72.486 7.515C71.931 7.656 71.503 8.029 71.202 8.635C71.015 9.011 70.936 9.35 70.964 9.65C70.991 9.951 71.1 10.234 71.288 10.499C71.477 10.765 71.721 11.03 72.023 11.294C72.347 11.586 72.598 11.824 72.777 12.009C72.956 12.195 73.07 12.359 73.118 12.503C73.167 12.647 73.154 12.792 73.082 12.938C72.972 13.16 72.837 13.301 72.679 13.363C72.52 13.425 72.347 13.434 72.158 13.39C71.969 13.345 71.774 13.273 71.573 13.174C71.331 13.053 71.101 12.911 70.882 12.748C70.664 12.585 70.464 12.407 70.283 12.216C70.102 12.024 69.944 11.827 69.81 11.625L69.106 12.792C69.24 12.962 69.405 13.14 69.603 13.324C69.801 13.508 70.023 13.685 70.27 13.855C70.516 14.024 70.775 14.176 71.047 14.311C71.624 14.598 72.133 14.747 72.576 14.758ZM70.701 4.514C70.927 4.432 71.099 4.234 71.219 3.92C71.326 3.637 71.326 3.384 71.219 3.164C71.111 2.943 70.91 2.777 70.618 2.666C70.33 2.556 70.071 2.545 69.841 2.632C69.61 2.719 69.44 2.909 69.329 3.201C69.209 3.515 69.208 3.778 69.325 3.99C69.441 4.202 69.639 4.36 69.918 4.467C70.215 4.579 70.476 4.595 70.702 4.514M67.662 12.566C67.843 12.09 68.018 11.63 68.187 11.185C68.356 10.74 68.543 10.249 68.747 9.713L68.995 9.059C69.151 8.649 69.294 8.273 69.423 7.933C69.553 7.593 69.676 7.268 69.794 6.958C69.912 6.649 70.031 6.335 70.152 6.016L68.735 5.53C68.615 5.844 68.497 6.153 68.381 6.459C68.265 6.764 68.143 7.085 68.016 7.421C67.888 7.756 67.748 8.125 67.595 8.526L67.346 9.181C67.143 9.717 66.956 10.208 66.787 10.653C66.618 11.098 66.443 11.558 66.262 12.033L67.662 12.566ZM61.749 6.926C61.573 6.768 61.444 6.585 61.36 6.377C61.276 6.17 61.264 5.943 61.324 5.698C61.385 5.449 61.503 5.255 61.679 5.115C61.855 4.975 62.056 4.888 62.284 4.852C62.511 4.816 62.74 4.826 62.971 4.883C63.189 4.936 63.395 5.032 63.589 5.17C63.783 5.309 63.931 5.486 64.033 5.7C64.134 5.915 64.15 6.165 64.08 6.45C64.028 6.664 63.937 6.831 63.806 6.953C63.676 7.075 63.525 7.163 63.353 7.217C63.181 7.271 63.006 7.301 62.826 7.308C62.647 7.315 62.484 7.312 62.338 7.301C62.12 7.209 61.924 7.084 61.749 6.926ZM60.673 12.057C60.498 11.968 60.361 11.873 60.264 11.77C60.167 11.667 60.103 11.561 60.075 11.453C60.046 11.345 60.043 11.242 60.068 11.142C60.11 10.969 60.225 10.836 60.414 10.74C60.603 10.644 60.825 10.586 61.081 10.564C61.336 10.542 61.584 10.556 61.827 10.606L62.065 10.664C62.536 10.779 62.891 10.893 63.127 11.006C63.364 11.119 63.515 11.236 63.582 11.358C63.648 11.48 63.663 11.613 63.628 11.758C63.598 11.881 63.489 12.004 63.3 12.129C63.111 12.253 62.85 12.338 62.517 12.384C62.184 12.43 61.788 12.398 61.331 12.286C61.068 12.222 60.848 12.145 60.673 12.057ZM62.189 13.551C62.629 13.56 63.049 13.51 63.451 13.401C63.852 13.293 64.195 13.112 64.48 12.86C64.765 12.607 64.958 12.273 65.06 11.856C65.159 11.448 65.137 11.101 64.993 10.816C64.849 10.531 64.587 10.291 64.207 10.095C63.827 9.899 63.334 9.727 62.726 9.579L62.441 9.509C62.132 9.434 61.886 9.359 61.702 9.285C61.519 9.212 61.389 9.134 61.312 9.053C61.236 8.972 61.211 8.877 61.238 8.769C61.275 8.614 61.409 8.523 61.639 8.495C61.87 8.468 62.217 8.455 62.682 8.458C63.136 8.468 63.552 8.418 63.929 8.309C64.307 8.199 64.628 8.012 64.892 7.747C65.155 7.483 65.343 7.124 65.453 6.67C65.548 6.28 65.552 5.914 65.462 5.57C65.373 5.226 65.173 4.916 64.861 4.638L64.297 5.206C64.723 5.31 65.142 5.412 65.552 5.513C65.962 5.613 66.385 5.716 66.82 5.822L67.076 4.775L65.07 4.285C64.798 4.219 64.572 4.151 64.392 4.08C64.212 4.01 64.039 3.942 63.872 3.878C63.705 3.813 63.509 3.753 63.282 3.698C62.702 3.556 62.185 3.53 61.731 3.618C61.277 3.707 60.902 3.893 60.607 4.176C60.312 4.46 60.112 4.817 60.007 5.248C59.927 5.579 59.91 5.879 59.956 6.15C60.003 6.421 60.084 6.659 60.2 6.865C60.315 7.071 60.442 7.246 60.58 7.39C60.717 7.534 60.837 7.643 60.94 7.716L60.912 7.832C60.701 7.867 60.522 7.925 60.375 8.007C60.228 8.089 60.109 8.191 60.02 8.313C59.93 8.435 59.866 8.573 59.828 8.727C59.777 8.936 59.778 9.12 59.831 9.279C59.883 9.438 59.953 9.568 60.042 9.669C60.13 9.77 60.207 9.841 60.275 9.881L60.246 9.997C60.095 10.008 59.908 10.046 59.685 10.112C59.462 10.177 59.254 10.294 59.06 10.46C58.865 10.626 58.731 10.861 58.657 11.165C58.609 11.36 58.605 11.562 58.643 11.77C58.681 11.979 58.782 12.184 58.947 12.385C59.111 12.586 59.353 12.772 59.671 12.944C59.99 13.115 60.401 13.262 60.904 13.385C61.321 13.487 61.749 13.542 62.189 13.551ZM58.281 6.557L58.325 5.851L57.455 5.424L52.833 5.188L52.769 6.208L58.281 6.557ZM56.594 9.764C56.883 9.743 57.148 9.705 57.39 9.65C57.632 9.595 57.844 9.527 58.027 9.445L58.054 8.142C57.828 8.244 57.589 8.325 57.337 8.384C57.085 8.443 56.836 8.482 56.59 8.501C56.343 8.521 56.117 8.524 55.912 8.511C55.377 8.477 54.939 8.354 54.6 8.14C54.26 7.927 54.016 7.638 53.869 7.273C53.721 6.909 53.663 6.48 53.694 5.986L53.709 5.762C53.737 5.32 53.835 4.933 54.003 4.603C54.171 4.272 54.394 4.017 54.672 3.838C54.95 3.66 55.268 3.582 55.627 3.604C56.088 3.633 56.452 3.814 56.718 4.147C56.985 4.479 57.1 4.932 57.064 5.505C57.06 5.566 57.053 5.629 57.044 5.697C57.036 5.764 57.024 5.832 57.01 5.901L58.281 6.557C58.313 6.419 58.337 6.279 58.353 6.137C58.369 5.996 58.382 5.836 58.394 5.659C58.435 4.998 58.354 4.436 58.15 3.975C57.945 3.513 57.633 3.155 57.215 2.902C56.796 2.648 56.286 2.503 55.685 2.465C54.991 2.421 54.39 2.536 53.882 2.81C53.373 3.084 52.975 3.485 52.687 4.014C52.398 4.543 52.232 5.159 52.187 5.862C52.142 6.575 52.234 7.214 52.462 7.78C52.69 8.347 53.069 8.806 53.599 9.157C54.128 9.509 54.819 9.711 55.671 9.765C55.997 9.786 56.305 9.786 56.594 9.765M47.691 3.77L48.327 3.729C48.764 3.702 49.214 3.673 49.675 3.644C50.136 3.615 50.595 3.586 51.051 3.557L50.978 2.404L45.934 2.724L46.007 3.876L47.691 3.77ZM50.521 9.528C50.722 9.485 50.903 9.431 51.065 9.367C51.227 9.303 51.359 9.233 51.462 9.156L51.278 7.905C51.122 8.037 50.95 8.138 50.76 8.208C50.571 8.279 50.392 8.319 50.224 8.33C49.819 8.355 49.513 8.254 49.307 8.027C49.101 7.799 48.983 7.447 48.953 6.972L48.698 2.955C48.674 2.574 48.652 2.225 48.632 1.911C48.612 1.597 48.593 1.288 48.573 0.985C48.554 0.683 48.533 0.354 48.511 0L47.056 0.387C47.084 0.83 47.111 1.26 47.138 1.68C47.164 2.099 47.193 2.555 47.224 3.049C47.248 3.417 47.271 3.785 47.294 4.153C47.318 4.521 47.341 4.89 47.364 5.26C47.388 5.63 47.411 6 47.435 6.371C47.458 6.741 47.482 7.11 47.505 7.478C47.539 8.009 47.653 8.436 47.849 8.761C48.045 9.085 48.317 9.316 48.665 9.453C49.012 9.589 49.426 9.643 49.906 9.612C50.115 9.599 50.32 9.571 50.521 9.528ZM41.436 9.332C41.203 9.24 41.051 9.027 40.978 8.694C40.932 8.484 40.937 8.293 40.993 8.121C41.049 7.949 41.146 7.798 41.285 7.667C41.423 7.537 41.601 7.429 41.816 7.344C42.189 7.191 42.477 7.069 42.682 6.976C42.886 6.884 43.038 6.808 43.137 6.748C43.236 6.689 43.316 6.631 43.375 6.575L43.637 7.778C43.562 8.067 43.452 8.323 43.31 8.545C43.167 8.767 43 8.95 42.81 9.094C42.619 9.238 42.414 9.334 42.195 9.382C41.922 9.441 41.668 9.425 41.436 9.332ZM42.842 10.294C43.09 10.13 43.296 9.947 43.46 9.744C43.623 9.541 43.753 9.341 43.848 9.144L43.978 9.115L44.257 10L45.577 9.713C45.493 9.326 45.414 8.965 45.342 8.632C45.269 8.3 45.198 7.971 45.127 7.647L44.949 6.827C44.888 6.549 44.823 6.248 44.752 5.924C44.682 5.6 44.623 5.329 44.575 5.11C44.454 4.554 44.253 4.123 43.972 3.819C43.691 3.515 43.341 3.325 42.923 3.249C42.506 3.172 42.028 3.193 41.49 3.31C41.22 3.369 40.959 3.44 40.705 3.524C40.451 3.608 40.208 3.703 39.975 3.808C39.743 3.914 39.529 4.021 39.333 4.131C39.137 4.24 38.962 4.347 38.808 4.453L39.173 5.734C39.378 5.58 39.581 5.441 39.781 5.319C39.981 5.197 40.175 5.088 40.362 4.992C40.549 4.896 40.73 4.818 40.905 4.755C41.08 4.693 41.245 4.646 41.4 4.612C41.697 4.547 41.97 4.526 42.221 4.548C42.472 4.57 42.684 4.667 42.858 4.839C43.031 5.011 43.15 5.289 43.214 5.671L41.265 6.425C41.005 6.525 40.753 6.649 40.508 6.798C40.263 6.947 40.052 7.126 39.873 7.337C39.695 7.548 39.568 7.796 39.495 8.082C39.421 8.368 39.425 8.7 39.507 9.079C39.601 9.507 39.768 9.852 40.008 10.112C40.249 10.373 40.539 10.548 40.879 10.639C41.218 10.73 41.582 10.733 41.97 10.649C42.302 10.576 42.593 10.458 42.842 10.294ZM36.924 11.985C36.755 11.505 36.593 11.044 36.437 10.602C36.281 10.159 36.114 9.685 35.936 9.179L35.585 8.182C35.576 7.819 35.605 7.513 35.673 7.264C35.742 7.015 35.834 6.813 35.95 6.658C36.066 6.503 36.193 6.383 36.331 6.297C36.469 6.212 36.6 6.147 36.723 6.104C36.882 6.048 37.025 6.005 37.153 5.975C37.281 5.945 37.426 5.915 37.59 5.888L37.222 4.444C37.098 4.444 36.971 4.455 36.842 4.481C36.712 4.507 36.59 4.54 36.476 4.58C36.274 4.652 36.068 4.762 35.858 4.913C35.649 5.063 35.467 5.277 35.312 5.554C35.158 5.831 35.061 6.195 35.021 6.644L34.889 6.69L34.38 5.415L33.2 5.92C33.38 6.43 33.559 6.94 33.738 7.448C33.917 7.957 34.093 8.455 34.265 8.944L34.498 9.604C34.688 10.145 34.863 10.64 35.021 11.089C35.179 11.538 35.342 12.003 35.511 12.483L36.924 11.985ZM28.908 9.19L29.479 8.907C29.872 8.711 30.275 8.511 30.689 8.305C31.102 8.1 31.514 7.895 31.924 7.692L31.41 6.657L26.884 8.906L27.398 9.941L28.908 9.19ZM33.749 13.401C33.917 13.284 34.063 13.164 34.188 13.043C34.312 12.921 34.407 12.805 34.472 12.694L33.817 11.613C33.725 11.794 33.605 11.954 33.458 12.092C33.31 12.231 33.161 12.337 33.011 12.412C32.647 12.593 32.326 12.618 32.048 12.488C31.77 12.358 31.525 12.08 31.313 11.653L29.522 8.049C29.351 7.706 29.196 7.394 29.056 7.112C28.916 6.83 28.778 6.553 28.643 6.281C28.508 6.01 28.362 5.715 28.204 5.397L27.012 6.318C27.209 6.715 27.401 7.101 27.588 7.478C27.775 7.854 27.979 8.263 28.199 8.706C28.363 9.036 28.527 9.367 28.691 9.697C28.855 10.027 29.02 10.358 29.185 10.69C29.35 11.022 29.515 11.355 29.68 11.687C29.845 12.019 30.01 12.35 30.174 12.681C30.411 13.157 30.682 13.507 30.988 13.73C31.295 13.953 31.634 14.06 32.008 14.051C32.382 14.043 32.784 13.932 33.214 13.718C33.402 13.624 33.58 13.519 33.749 13.401ZM28.33 15.912C28.609 15.396 28.721 14.888 28.664 14.386C28.607 13.885 28.413 13.406 28.08 12.95C27.769 12.523 27.432 12.226 27.07 12.057C26.707 11.889 26.263 11.836 25.737 11.899C25.211 11.962 24.551 12.127 23.758 12.393C23.254 12.565 22.827 12.685 22.479 12.754C22.131 12.823 21.84 12.825 21.607 12.758C21.373 12.692 21.174 12.545 21.009 12.319C20.828 12.07 20.748 11.815 20.771 11.553C20.793 11.291 20.891 11.036 21.063 10.789C21.235 10.542 21.459 10.318 21.734 10.118C21.949 9.961 22.202 9.819 22.493 9.69C22.783 9.562 23.096 9.456 23.429 9.371C23.763 9.286 24.102 9.237 24.444 9.224L23.664 7.905C23.473 7.928 23.259 7.972 23.022 8.035C22.785 8.098 22.535 8.184 22.271 8.293C22.006 8.402 21.74 8.528 21.472 8.671C21.204 8.815 20.95 8.975 20.708 9.151C20.105 9.591 19.674 10.054 19.414 10.541C19.154 11.028 19.048 11.517 19.097 12.007C19.145 12.497 19.329 12.961 19.648 13.398C19.978 13.851 20.341 14.152 20.736 14.303C21.132 14.453 21.578 14.493 22.075 14.422C22.572 14.351 23.13 14.209 23.748 13.995C24.239 13.821 24.676 13.692 25.059 13.606C25.441 13.521 25.77 13.507 26.047 13.566C26.323 13.624 26.556 13.783 26.746 14.043C26.944 14.315 27.037 14.587 27.024 14.858C27.012 15.131 26.915 15.395 26.732 15.652C26.55 15.909 26.305 16.15 25.995 16.376C25.713 16.582 25.408 16.76 25.08 16.909C24.753 17.058 24.413 17.182 24.06 17.28C23.708 17.379 23.347 17.449 22.98 17.492L23.776 18.809C24.023 18.767 24.327 18.684 24.689 18.559C25.051 18.433 25.426 18.274 25.814 18.081C26.201 17.888 26.563 17.669 26.898 17.424C27.573 16.932 28.051 16.428 28.33 15.912Z" fill="#D5D3E6"/>
</g>
<defs>
<clipPath id="clip0_151_232">
<rect width="104.063" height="105.081" fill="white"/>
</clipPath>
</defs>
</svg>
