<svg preserveAspectRatio="none" width="100%" height="100%" overflow="visible" style="display: block;" viewBox="0 0 212.731 29.6484" fill="none" xmlns="http://www.w3.org/2000/svg">
<g id="Group 51">
<path id="Union" d="M25.584 25.4316C25.3229 25.6587 25.0614 25.9184 24.833 26.1455C23.4625 26.5023 22.0918 26.8913 20.7539 27.248C20.2972 27.3777 19.8405 27.507 19.3838 27.6367C18.0786 28.0259 16.8058 28.3834 15.5332 28.7402C15.0111 28.87 14.4557 29.0321 13.9336 29.1943C13.4116 29.3565 12.922 29.4863 12.4326 29.6484C12.0737 29.5836 11.7476 29.5182 11.3887 29.4209C12.2043 29.1615 13.0199 28.9342 13.8682 28.6748C14.3902 28.5126 14.9125 28.3829 15.4346 28.2207C16.7071 27.8315 17.98 27.4749 19.2852 27.1182C19.7418 27.0209 20.1664 26.8914 20.623 26.7617C22.0262 26.3725 23.3972 26.0152 24.833 25.626C25.0614 25.5611 25.3229 25.4965 25.584 25.4316ZM28.1309 21.9277H28.0654C26.6297 22.2845 25.2264 22.6744 23.8232 23.0312C23.4643 23.1286 23.1051 23.2259 22.7461 23.3232C21.3103 23.6801 19.9067 24.0688 18.5361 24.458C18.0794 24.5877 17.6228 24.7179 17.166 24.8477C15.8608 25.2369 14.588 25.5934 13.3154 25.9502C12.7935 26.0799 12.2388 26.2422 11.7168 26.4043C10.5095 26.7611 9.30164 27.1178 8.12695 27.4746C7.86589 27.5395 7.63704 27.6373 7.37598 27.7021C7.18035 27.5725 6.98469 27.4753 6.78906 27.3457C7.21326 27.216 7.63733 27.0858 8.06152 26.9561C9.23629 26.5992 10.444 26.2426 11.6514 25.8857C12.1734 25.7236 12.6957 25.5938 13.2178 25.4316C14.4904 25.0424 15.7631 24.6849 17.0684 24.3281C17.5251 24.2308 17.9495 24.1014 18.4062 23.9717C19.8093 23.5825 21.1796 23.2251 22.6152 22.8359C22.9742 22.7386 23.3012 22.6422 23.6602 22.5449C25.0633 22.1881 26.4994 21.798 27.9678 21.4736C28.0981 21.409 28.261 21.3771 28.4238 21.3447C28.3261 21.539 28.2286 21.7334 28.1309 21.9277ZM29.6943 16.8027C29.6617 17.0947 29.6297 17.3545 29.5645 17.6465C29.0423 17.7762 28.5198 17.9054 28.0303 18.0352C27.7367 18.1324 27.4107 18.1977 27.1172 18.2949C25.6815 18.6841 24.2781 19.0737 22.875 19.4629C22.5487 19.5602 22.2546 19.6253 21.9609 19.7227C20.5251 20.1119 19.1215 20.5336 17.751 20.9229C17.3595 21.0525 16.9676 21.1496 16.5762 21.2793C15.2711 21.6685 13.9987 22.0581 12.7588 22.4473C12.2693 22.6094 11.8123 22.7392 11.3555 22.9014C10.1481 23.2906 8.94039 23.6801 7.76562 24.0693C7.27622 24.1991 6.81909 24.3613 6.3623 24.5234C5.64451 24.7829 4.92678 25.0101 4.20898 25.2695C4.01328 25.075 3.84997 24.8802 3.6543 24.6533C4.56799 24.3289 5.48181 24.0363 6.39551 23.7119C6.85223 23.5498 7.27666 23.42 7.7334 23.2578C8.90789 22.8687 10.1152 22.48 11.3223 22.0908C11.7791 21.9611 12.2043 21.7987 12.6611 21.6689C13.901 21.2797 15.1734 20.8902 16.4785 20.501C16.8701 20.4037 17.2295 20.2741 17.6211 20.1768C19.0241 19.7876 20.3944 19.3658 21.8301 18.9766C22.1238 18.9117 22.4182 18.8139 22.7119 18.749C24.115 18.3598 25.5184 17.9703 26.9541 17.5811C27.2476 17.4838 27.5409 17.4187 27.8018 17.2891C28.4216 17.1269 29.0744 16.9649 29.6943 16.8027ZM29.6631 12.6836C29.7283 13.0403 29.7603 13.3972 29.793 13.7539C28.8469 14.0133 27.9008 14.2406 26.9873 14.5C26.7589 14.5973 26.4974 14.6617 26.2363 14.7266C24.8005 15.1483 23.3973 15.5383 21.9941 15.96C21.7658 16.0248 21.5047 16.1217 21.2764 16.1865C19.8733 16.6082 18.4701 17.0303 17.0996 17.4844C16.7733 17.6141 16.4464 17.7113 16.1201 17.8086C14.8476 18.2302 13.5749 18.6516 12.335 19.0732C11.9434 19.203 11.5517 19.3331 11.1602 19.4629C9.95275 19.8846 8.74508 20.3391 7.57031 20.7607C7.17898 20.8904 6.82004 21.0196 6.42871 21.1816C5.2866 21.6033 4.14407 22.0576 3.00195 22.5117C2.77359 22.609 2.51256 22.7064 2.28418 22.8037C2.08841 22.4794 1.92486 22.1876 1.76172 21.8633C1.82684 21.8309 1.85982 21.8311 1.9248 21.7988C2.2837 21.6691 2.64267 21.5059 3.03418 21.3438C4.17632 20.8896 5.31937 20.4363 6.49414 20.0146C6.82028 19.885 7.17874 19.7547 7.50488 19.625C8.67965 19.1709 9.88732 18.7488 11.0947 18.3271C11.4537 18.2298 11.8129 18.1005 12.1719 17.9707C13.4118 17.549 14.6845 17.1277 15.957 16.7061C16.2507 16.6087 16.5774 16.5114 16.8711 16.4141C18.2416 15.96 19.6447 15.5379 21.0479 15.1162C21.2762 15.0513 21.505 14.9867 21.7334 14.9219C23.1365 14.5002 24.5398 14.0777 25.9756 13.6885C26.2039 13.6236 26.4651 13.559 26.6934 13.4941C27.6723 13.2022 28.6516 12.9431 29.6631 12.6836ZM74.2061 7.49316C78.5134 7.49316 81.7772 10.6721 81.7773 14.8564C81.7773 19.0409 78.5135 22.2197 74.2061 22.2197C69.8987 22.2196 66.6357 19.0408 66.6357 14.8564C66.6359 10.6722 69.8988 7.49329 74.2061 7.49316ZM132.227 7.49316C136.469 7.49316 139.699 10.6721 139.699 14.8564C139.699 19.0409 136.469 22.2197 132.227 22.2197C127.984 22.2196 124.754 19.0408 124.754 14.8564C124.754 10.6722 127.985 7.49331 132.227 7.49316ZM190.64 7.49316C194.882 7.49316 198.112 10.6721 198.112 14.8564C198.112 19.0409 194.882 22.2197 190.64 22.2197C186.365 22.2196 183.167 19.0408 183.167 14.8564C183.167 10.6722 186.398 7.49327 190.64 7.49316ZM45.4258 7.75293C48.2974 7.75294 50.4511 9.82861 50.4512 12.6182C50.4512 15.4078 48.2974 17.4844 45.4258 17.4844H42.0322V22.0254H38.8018V7.75293H45.4258ZM61.415 16.4785V7.75293H64.6455V21.9932H61.3818L55.4434 13.2676V21.9932H52.2119V7.75293H55.4434L61.415 16.4785ZM90.9785 21.9932H89.7061V7.75293H90.9785V21.9932ZM105.142 19.9492V7.75293H106.414V21.9932H105.012L95.9395 9.7959V21.9932H94.667V7.75293H96.0371L105.142 19.9492ZM120.579 19.9492V7.75293H121.852V21.9932H120.448L111.344 9.7959V21.9932H110.071L110.104 7.75293H111.475L120.579 19.9492ZM147.204 20.4033L152.523 7.75293H153.927L147.89 21.9932H146.486L140.449 7.75293H141.885L147.204 20.4033ZM166.85 21.9932H165.446L163.815 18.1006H156.31L154.678 21.9932H153.274L159.279 7.75293H160.812L166.85 21.9932ZM176.477 8.95312H171.908V21.9932H170.636L170.603 8.95312H166.034V7.75293H176.477V8.95312ZM180.264 21.9932H178.99V7.75293H180.264V21.9932ZM211.459 19.9492V7.75293H212.731V21.9932H211.328L202.224 9.7959V21.9932H200.951V7.75293H202.354L211.459 19.9492ZM132.227 8.72559C128.735 8.72573 126.092 11.3534 126.092 14.8564C126.092 18.3596 128.735 20.9872 132.227 20.9873C135.718 20.9873 138.361 18.3597 138.361 14.8564C138.361 11.3533 135.718 8.72559 132.227 8.72559ZM190.64 8.72559C187.148 8.72569 184.505 11.3534 184.505 14.8564C184.505 18.3597 187.148 20.9872 190.64 20.9873C194.131 20.9873 196.774 18.3597 196.774 14.8564C196.774 11.3533 194.131 8.72559 190.64 8.72559ZM29.0439 10.0879C27.9998 10.3798 26.9558 10.672 25.9443 10.9639C25.7485 11.0287 25.5522 11.0943 25.3564 11.1592C23.9209 11.5808 22.5178 12.002 21.1475 12.4561C20.9843 12.4885 20.7881 12.5533 20.625 12.6182C19.1892 13.0723 17.8188 13.5271 16.4482 14.0137C16.1872 14.0785 15.9583 14.1751 15.6973 14.2725C14.4246 14.7266 13.1521 15.1814 11.9121 15.668C11.6185 15.7977 11.2917 15.8947 10.998 16.0244C9.79082 16.5109 8.58378 16.9979 7.40918 17.4844C7.14812 17.6141 6.85383 17.7111 6.59277 17.8408C5.38545 18.3598 4.24363 18.8795 3.10156 19.3984C2.77526 19.5282 2.48135 19.6574 2.25293 19.7871C1.86134 19.9817 1.50194 20.1442 1.11035 20.3389C0.94721 19.9172 0.784818 19.4629 0.654297 19.0088C1.27415 18.7169 1.89382 18.4247 2.51367 18.1328C2.74207 18.0031 2.97082 17.9059 3.19922 17.8086C4.34136 17.2896 5.51664 16.7707 6.69141 16.2842C6.88715 16.1869 7.11542 16.0895 7.34375 15.9922C8.55114 15.5056 9.75843 15.051 10.9658 14.5645C11.2269 14.4672 11.488 14.3698 11.749 14.2725C12.989 13.8184 14.2616 13.3643 15.5342 12.9102C15.73 12.8453 15.9591 12.7485 16.1875 12.6836C17.558 12.1971 18.9612 11.7422 20.3643 11.2881C20.5272 11.2233 20.6583 11.1908 20.8213 11.126C22.1916 10.6719 23.5947 10.2507 25.0303 9.8291C25.1934 9.76423 25.3896 9.73187 25.5527 9.66699C26.5317 9.37507 27.5431 9.11517 28.5547 8.82324C28.7178 9.24478 28.8808 9.66635 29.0439 10.0879ZM74.2061 10.5752C71.7915 10.5753 69.9318 12.4239 69.9316 14.8564C69.9316 17.2892 71.7914 19.1385 74.2061 19.1387C76.6535 19.1711 78.4814 17.3217 78.4814 14.8564C78.4813 12.3913 76.6207 10.5752 74.2061 10.5752ZM26.3008 5.25488C26.6597 5.67657 27.0194 6.13063 27.3457 6.61719C26.4974 6.87664 25.6487 7.10385 24.833 7.36328C24.6698 7.39572 24.5387 7.46073 24.4082 7.49316C23.0051 7.94726 21.6019 8.40116 20.2314 8.8877C20.1336 8.9525 20.0031 8.98517 19.9053 9.01758C18.5021 9.50414 17.0987 10.024 15.7607 10.543C15.5976 10.6078 15.4014 10.6724 15.2383 10.7373C13.9659 11.2562 12.7261 11.7751 11.4863 12.2939C11.2906 12.3588 11.0619 12.4564 10.8662 12.5537C9.62618 13.0727 8.41793 13.6241 7.24316 14.208C7.11282 14.2728 6.94996 14.3698 6.78711 14.4346C5.57971 15.0184 4.40483 15.6356 3.2627 16.252C3.09954 16.3493 2.93578 16.4461 2.83789 16.4785C2.02216 16.9326 1.20635 17.419 0.390625 17.873C0.292778 17.2894 0.22735 16.7057 0.162109 16.1221L0.195312 16.0889C1.17417 15.5051 2.21861 14.9537 3.2627 14.4023C3.32775 14.37 3.39296 14.338 3.45801 14.3057C4.60014 13.6893 5.80822 13.1054 7.01562 12.5215C7.11337 12.489 7.17856 12.424 7.27637 12.3916C8.45112 11.8402 9.65842 11.2885 10.8984 10.7695C11.029 10.7047 11.1923 10.6401 11.3555 10.5752C12.5629 10.0562 13.8357 9.53735 15.1084 9.05078C15.2389 8.98594 15.3695 8.95256 15.5 8.8877C16.8703 8.36878 18.2406 7.84977 19.6436 7.36328C19.7087 7.33091 19.8068 7.29897 19.8721 7.2666C21.2426 6.81247 22.614 6.35843 24.0498 5.9043C24.1477 5.87189 24.2782 5.83905 24.376 5.80664C25.0285 5.61206 25.6483 5.44947 26.3008 5.25488ZM156.767 16.9004H163.293L160.029 9.11523L156.767 16.9004ZM14.457 0C14.3919 0.0323866 14.359 0.0652696 14.2939 0.0976562C13.1845 0.77883 12.0745 1.49224 11.0303 2.23828C10.0187 2.9519 9.03967 3.69807 8.12598 4.47656C7.76702 4.80094 7.40779 5.12582 7.04883 5.4502C7.40779 5.22313 7.73479 4.99562 8.09375 4.76855C9.03999 4.18474 10.0192 3.60119 10.998 3.0498C12.1075 2.43352 13.2169 1.84927 14.3916 1.29785C15.2073 0.90865 16.0228 0.518883 16.8711 0.162109C18.1111 0.324298 19.2866 0.616184 20.4287 1.07031C19.8414 1.29735 19.2211 1.52471 18.6338 1.78418C17.2306 2.36806 15.86 2.98482 14.5547 3.66602C13.2821 4.31473 12.0745 4.9954 10.8672 5.70898C9.72522 6.39007 8.61578 7.07145 7.53906 7.81738C6.42963 8.5634 5.31957 9.37445 4.27539 10.2178C3.72073 10.6394 3.1988 11.0616 2.67676 11.5156C3.19875 11.1913 3.65572 10.8671 4.17773 10.5752C5.22194 9.92647 6.29874 9.34188 7.4082 8.72559C8.51747 8.14184 9.65949 7.55836 10.834 6.97461L10.9326 6.94238C12.1726 6.32607 13.4129 5.7741 14.6855 5.22266L14.8154 5.125C16.1534 4.54112 17.5245 3.98971 18.9277 3.4707C20.135 3.01665 21.375 2.59546 22.6475 2.17383C23.3326 2.59545 23.985 3.01724 24.5723 3.53613C24.3113 3.63335 24.0177 3.69864 23.7568 3.7959C23.6591 3.82826 23.5935 3.82794 23.5283 3.86035C22.0926 4.3469 20.7221 4.83356 19.3516 5.35254L19.2539 5.38477C17.8507 5.93621 16.4795 6.48741 15.1416 7.07129C15.0438 7.13612 14.9787 7.16875 14.8809 7.20117C13.6082 7.75261 12.3353 8.30458 11.1279 8.9209C11.0301 8.98565 10.9318 9.0182 10.834 9.08301C9.59411 9.69926 8.38654 10.3482 7.21191 11.0293L7.11426 11.0938C5.87432 11.8073 4.66727 12.5214 3.45996 13.2998C2.41572 13.981 1.40378 14.6623 0.424805 15.376C0.294291 15.4733 0.163717 15.5707 0.0332031 15.668C0.0332031 15.4086 2.20138e-05 15.1813 0 14.9219C0 14.3704 0.0333678 13.8185 0.0986328 13.2021C0.196545 12.1642 0.424681 11.1586 0.750977 10.1855C1.27304 8.5639 2.08878 7.07198 3.13281 5.74219C4.17699 4.41231 5.41721 3.2764 6.82031 2.36816C9.03932 0.940903 11.6506 0.0973133 14.457 0ZM42.0322 14.4346H45.3604C46.3719 14.4346 47.1553 13.6239 47.1553 12.5859C47.1553 11.5479 46.372 10.7373 45.3604 10.7373H42.0322V14.4346Z" fill="var(--fill-0, black)"/>
</g>
</svg>
