<svg preserveAspectRatio="none" width="100%" height="100%" overflow="visible" style="display: block;" viewBox="0 0 189.762 47.9999" fill="none" xmlns="http://www.w3.org/2000/svg">
<g id="Group 41">
<path id="Vector" d="M42.9781 8.43919C42.9781 11.2627 40.6958 13.5517 37.8806 13.5517C35.0654 13.5517 32.7831 11.2627 32.7831 8.43919C32.7831 5.61573 35.0654 3.32666 37.8806 3.32666C40.6958 3.32666 42.9781 5.61573 42.9781 8.43919Z" fill="var(--fill-0, black)"/>
<path id="Vector_2" d="M45.6833 25.9528C45.6833 28.2646 43.8147 30.1388 41.5096 30.1388C39.2046 30.1388 37.3359 28.2646 37.3359 25.9528C37.3359 23.641 39.2046 21.7668 41.5096 21.7668C43.8147 21.7668 45.6833 23.641 45.6833 25.9528Z" fill="var(--fill-0, black)"/>
<path id="Vector_3" d="M27.5029 6.77644C27.5029 9.05626 25.6601 10.9044 23.3866 10.9044C21.1131 10.9044 19.2707 9.05626 19.2707 6.77644C19.2707 4.49662 21.1135 2.64844 23.3866 2.64844C25.6598 2.64844 27.5029 4.49662 27.5029 6.77644Z" fill="var(--fill-0, black)"/>
<path id="Vector_4" d="M8.23214 31.4378C8.23214 33.7176 6.38938 35.5662 4.11625 35.5662C1.84311 35.5662 0 33.7176 0 31.4378C0 29.158 1.84276 27.3098 4.11625 27.3098C6.38974 27.3098 8.23214 29.158 8.23214 31.4378Z" fill="var(--fill-0, black)"/>
<path id="Vector_5" d="M16.7629 35.1798C16.7629 36.7467 15.4962 38.0171 13.9339 38.0171C12.3715 38.0171 11.1052 36.7467 11.1052 35.1798C11.1052 33.6128 12.3719 32.3428 13.9339 32.3428C15.4958 32.3428 16.7629 33.6128 16.7629 35.1798Z" fill="var(--fill-0, black)"/>
<path id="Vector_6" d="M31.8523 1.13671C31.8523 1.76427 31.345 2.27342 30.7189 2.27342C30.0929 2.27342 29.5859 1.76427 29.5859 1.13671C29.5859 0.509156 30.0932 0 30.7189 0C31.3446 0 31.8523 0.509156 31.8523 1.13671Z" fill="var(--fill-0, black)"/>
<path id="Vector_7" d="M22.9046 33.4329C22.9046 34.0604 22.3972 34.5692 21.7712 34.5692C21.1451 34.5692 20.6382 34.0604 20.6382 33.4329C20.6382 32.8053 21.1455 32.2961 21.7712 32.2961C22.3969 32.2961 22.9046 32.8053 22.9046 33.4329Z" fill="var(--fill-0, black)"/>
<path id="Vector_8" d="M34.9773 29.7427C34.9773 30.3702 34.47 30.879 33.8439 30.879C33.2178 30.879 32.7109 30.3702 32.7109 29.7427C32.7109 29.1151 33.2182 28.606 33.8439 28.606C34.4696 28.606 34.9773 29.1151 34.9773 29.7427Z" fill="var(--fill-0, black)"/>
<path id="Vector_9" d="M32.8113 46.5252C32.8113 47.3046 32.1813 47.9361 31.4046 47.9361C30.6278 47.9361 29.9975 47.3046 29.9975 46.5252C29.9975 45.7458 30.6275 45.114 31.4046 45.114C32.1816 45.114 32.8113 45.7458 32.8113 46.5252Z" fill="var(--fill-0, black)"/>
<path id="Vector_10" d="M18.2171 15.0464C18.2171 15.6739 17.7098 16.1831 17.0837 16.1831C16.4576 16.1831 15.9507 15.6739 15.9507 15.0464C15.9507 14.4188 16.458 13.9097 17.0837 13.9097C17.7094 13.9097 18.2171 14.4188 18.2171 15.0464Z" fill="var(--fill-0, black)"/>
<path id="Vector_11" d="M31.8533 13.6691C31.8533 14.5598 31.1336 15.2815 30.2456 15.2815C29.3575 15.2815 28.6379 14.5598 28.6379 13.6691C28.6379 12.7784 29.3579 12.0566 30.2456 12.0566C31.1333 12.0566 31.8533 12.7788 31.8533 13.6691Z" fill="var(--fill-0, black)"/>
<path id="Vector_12" d="M47.6959 18.1518C47.6959 19.1833 46.8625 20.0192 45.834 20.0192C44.8056 20.0192 43.9721 19.1833 43.9721 18.1518C43.9721 17.1203 44.8056 16.2844 45.834 16.2844C46.8625 16.2844 47.6959 17.1203 47.6959 18.1518Z" fill="var(--fill-0, black)"/>
<path id="Vector_13" d="M38.1054 18.9345C38.1054 20.3685 36.9462 21.5311 35.5164 21.5311C34.0867 21.5311 32.9274 20.3685 32.9274 18.9345C32.9274 17.5006 34.0863 16.3379 35.5164 16.3379C36.9465 16.3379 38.1054 17.5006 38.1054 18.9345Z" fill="var(--fill-0, black)"/>
<path id="Vector_14" d="M13.0803 16.8387C13.0803 18.4284 11.7956 19.7169 10.2105 19.7169C8.6255 19.7169 7.34039 18.4284 7.34039 16.8387C7.34039 15.249 8.6255 13.9604 10.2105 13.9604C11.7956 13.9604 13.0803 15.249 13.0803 16.8387Z" fill="var(--fill-0, black)"/>
<path id="Vector_15" d="M16.3919 5.55381C16.3919 6.85905 15.3369 7.91719 14.0355 7.91719C12.7341 7.91719 11.6787 6.85905 11.6787 5.55381C11.6787 4.24856 12.7337 3.19043 14.0355 3.19043C15.3373 3.19043 16.3919 4.24856 16.3919 5.55381Z" fill="var(--fill-0, black)"/>
<path id="Vector_16" d="M15.8496 24.8371C15.8496 26.5124 14.4954 27.8707 12.8249 27.8707C11.1544 27.8707 9.8002 26.5124 9.8002 24.8371C9.8002 23.1617 11.1544 21.8035 12.8249 21.8035C14.4954 21.8035 15.8496 23.1617 15.8496 24.8371Z" fill="var(--fill-0, black)"/>
<path id="Vector_17" d="M30.1578 23.11C30.1578 26.2674 27.6056 28.8267 24.4579 28.8267C21.3102 28.8267 18.7577 26.2674 18.7577 23.11C18.7577 19.9527 21.3098 17.3931 24.4579 17.3931C27.606 17.3931 30.1578 19.9527 30.1578 23.11Z" fill="var(--fill-0, black)"/>
<path id="Vector_18" d="M27.1176 42.1226C27.1176 44.8127 24.943 46.9937 22.2608 46.9937C19.5785 46.9937 17.4039 44.8127 17.4039 42.1226C17.4039 39.4324 19.5785 37.2515 22.2608 37.2515C24.943 37.2515 27.1176 39.4324 27.1176 42.1226Z" fill="var(--fill-0, black)"/>
<path id="Vector_19" d="M13.1914 44.5972C13.1914 46.4767 11.6723 47.9999 9.79871 47.9999C7.92511 47.9999 6.40602 46.4767 6.40602 44.5972C6.40602 42.7178 7.92475 41.1946 9.79871 41.1946C11.6727 41.1946 13.1914 42.7181 13.1914 44.5972Z" fill="var(--fill-0, black)"/>
<path id="Vector_20" d="M41.7718 38.5425C41.7718 41.3493 39.5032 43.6241 36.7051 43.6241C33.9069 43.6241 31.638 41.3493 31.638 38.5425C31.638 35.7358 33.9065 33.4609 36.7051 33.4609C39.5036 33.4609 41.7718 35.7361 41.7718 38.5425Z" fill="var(--fill-0, black)"/>
<path id="Vector_21" d="M73.5859 31.4521H69.8043L63.672 21.4205C63.4873 21.124 63.3228 20.8331 63.1785 20.5476C63.0342 20.2621 62.903 19.9709 62.785 19.6744C62.8144 19.9709 62.8368 20.2639 62.8516 20.5533C62.8665 20.842 62.8736 21.1314 62.8736 21.4205V31.4521H59.9794V15.6481H63.761L69.9157 25.6797C70.0929 25.9688 70.25 26.2561 70.3868 26.5416C70.5237 26.8274 70.6548 27.1073 70.7807 27.3814C70.7583 27.1073 70.7399 26.8235 70.725 26.5302C70.7101 26.2376 70.703 25.9538 70.703 25.6793V15.6477H73.5863V31.4518L73.5859 31.4521Z" fill="var(--fill-0, black)"/>
<path id="Vector_22" d="M76.5686 21.3536C77.2188 20.8864 77.9434 20.5248 78.7421 20.2691C79.5405 20.0131 80.4016 19.8855 81.3258 19.8855C82.0873 19.8855 82.7676 19.9762 83.3664 20.1579C83.9652 20.3399 84.4696 20.6179 84.8802 20.9923C85.2907 21.3667 85.6027 21.8375 85.8175 22.405C86.0316 22.9721 86.139 23.6526 86.139 24.4455V28.2603C86.139 28.8832 86.3978 29.1947 86.9154 29.1947C87.0778 29.1947 87.2242 29.1669 87.3532 29.1111C87.4826 29.0556 87.6138 28.976 87.7467 28.8722L88.024 31.1299C87.7726 31.2857 87.4919 31.408 87.1813 31.4969C86.8711 31.5858 86.5123 31.6302 86.1057 31.6302C85.4995 31.6302 84.9986 31.5154 84.6033 31.2857C84.2076 31.056 83.9102 30.7627 83.7106 30.4067C83.5259 30.5774 83.3189 30.7424 83.0895 30.9017C82.8605 31.0613 82.6035 31.1986 82.3188 31.3134C82.0341 31.4283 81.7257 31.5189 81.3928 31.5858C81.0603 31.6526 80.7054 31.686 80.3282 31.686C79.7369 31.686 79.2062 31.6046 78.7368 31.4414C78.2671 31.2789 77.8661 31.0528 77.5336 30.7644C77.2011 30.4757 76.9476 30.1333 76.7739 29.7372C76.6002 29.3411 76.5133 28.9099 76.5133 28.4434C76.5133 27.8883 76.6299 27.3963 76.8625 26.9667C77.0954 26.5376 77.4301 26.1731 77.8661 25.8731C78.3022 25.5733 78.8343 25.3475 79.4629 25.1961C80.091 25.0443 80.7972 24.9682 81.5811 24.9682C81.8842 24.9682 82.1667 24.9792 82.4294 25.0016C82.6918 25.0236 82.9413 25.0571 83.1778 25.1015V24.6105C83.1778 24.1938 83.126 23.8421 83.0225 23.5555C82.919 23.2686 82.7655 23.0322 82.5624 22.8462C82.3592 22.6603 82.1114 22.528 81.8193 22.4498C81.5272 22.3715 81.1929 22.3324 80.8157 22.3324C80.1134 22.3324 79.4682 22.4494 78.8807 22.6827C78.293 22.9163 77.7289 23.2299 77.1894 23.6227L76.5686 21.3536ZM83.1778 27.1591C82.9488 27.1072 82.7176 27.0702 82.4847 27.0482C82.2518 27.0261 82.0058 27.0147 81.7473 27.0147C81.3705 27.0147 81.0376 27.0425 80.7494 27.0979C80.4612 27.1534 80.2208 27.2352 80.0287 27.3426C79.8365 27.4499 79.6922 27.5815 79.5962 27.7372C79.5001 27.893 79.4519 28.0707 79.4519 28.2709C79.4519 28.4562 79.487 28.6194 79.5572 28.7602C79.6273 28.901 79.727 29.0215 79.8564 29.1218C79.9858 29.222 80.1428 29.296 80.3279 29.3443C80.5126 29.3927 80.7231 29.4165 80.96 29.4165C81.4478 29.4165 81.8785 29.3259 82.2522 29.1442C82.6255 28.9625 82.9339 28.7267 83.1781 28.438V27.1587L83.1778 27.1591Z" fill="var(--fill-0, black)"/>
<path id="Vector_23" d="M89.8091 20.0966H92.1354L92.2911 21.1864C92.7193 20.7789 93.2103 20.4561 93.7641 20.2189C94.3178 19.9814 94.9382 19.863 95.6253 19.863C96.2308 19.863 96.7973 19.9594 97.3251 20.1517C97.853 20.3448 98.3149 20.6357 98.7099 21.025C99.1048 21.4143 99.4168 21.9057 99.6458 22.4988C99.8748 23.0922 99.9893 23.7891 99.9893 24.5894V31.4517H97.0284V24.9343C97.0284 24.4525 96.971 24.0447 96.8568 23.7109C96.7423 23.3773 96.5856 23.1068 96.3867 22.8991C96.1875 22.6918 95.9592 22.5397 95.7011 22.4433C95.443 22.3469 95.174 22.2986 94.8939 22.2986C94.5029 22.2986 94.125 22.3896 93.7602 22.5713C93.395 22.7533 93.0653 23.0104 92.7704 23.3443V31.452H89.8095V20.0966H89.8091Z" fill="var(--fill-0, black)"/>
<path id="Vector_24" d="M108.551 19.8635C109.349 19.8635 110.101 19.9951 110.807 20.2582C111.513 20.5213 112.132 20.9028 112.665 21.4038C113.197 21.9041 113.618 22.5142 113.928 23.2335C114.239 23.9528 114.394 24.7681 114.394 25.6801C114.394 26.6294 114.239 27.4763 113.928 28.2212C113.618 28.9661 113.193 29.5947 112.653 30.1064C112.114 30.618 111.479 31.0091 110.751 31.2801C110.023 31.5506 109.234 31.6861 108.384 31.6861C107.585 31.6861 106.829 31.5524 106.116 31.2857C105.402 31.0187 104.78 30.6369 104.247 30.1398C103.715 29.6434 103.294 29.0354 102.984 28.3158C102.673 27.5969 102.518 26.7812 102.518 25.8689C102.518 24.9199 102.673 24.0729 102.984 23.3277C103.294 22.5825 103.721 21.9524 104.264 21.4372C104.808 20.922 105.447 20.5305 106.182 20.2639C106.918 19.9969 107.708 19.8635 108.551 19.8635ZM108.418 22.3549C108.033 22.3549 107.667 22.431 107.32 22.5828C106.972 22.735 106.665 22.9554 106.399 23.2445C106.133 23.5336 105.92 23.8881 105.761 24.3065C105.602 24.7257 105.523 25.1983 105.523 25.7245C105.523 26.2955 105.604 26.7961 105.767 27.226C105.93 27.6562 106.145 28.0157 106.416 28.3048C106.685 28.5938 107 28.8111 107.358 28.9554C107.717 29.0998 108.099 29.1723 108.506 29.1723C108.883 29.1723 109.247 29.0962 109.598 28.9441C109.949 28.7922 110.256 28.5732 110.519 28.2877C110.781 28.0022 110.99 27.6502 111.145 27.231C111.3 26.8121 111.378 26.3396 111.378 25.813C111.378 25.2424 111.3 24.7417 111.145 24.3115C110.99 23.882 110.778 23.5222 110.508 23.2328C110.238 22.9437 109.922 22.725 109.559 22.5764C109.197 22.4281 108.816 22.3542 108.417 22.3542L108.418 22.3549Z" fill="var(--fill-0, black)"/>
<path id="Vector_25" d="M133.495 15.6479C133.739 17.0787 133.95 18.4636 134.128 19.8019C134.306 21.1406 134.461 22.4586 134.594 23.7557C134.728 25.0535 134.839 26.3377 134.927 27.6092C135.016 28.881 135.09 30.1617 135.149 31.452H133.176C133.123 30.2734 133.058 29.1089 132.979 27.9598C132.9 26.811 132.807 25.665 132.698 24.5233C132.59 23.3816 132.467 22.2453 132.328 21.1146C132.189 19.9839 132.03 18.8476 131.85 17.7059L127.403 31.4524H125.263L120.806 17.6611C120.629 18.8031 120.471 19.9413 120.33 21.0759C120.19 22.2104 120.067 23.35 119.96 24.4959C119.854 25.6415 119.762 26.7907 119.685 27.9434C119.607 29.0965 119.543 30.2663 119.491 31.4524H117.573C117.625 30.1621 117.695 28.8817 117.783 27.6095C117.872 26.3381 117.981 25.0538 118.11 23.756C118.239 22.459 118.394 21.1409 118.575 19.8023C118.756 18.4639 118.968 17.0794 119.212 15.6483H122.003L126.361 29.1054L130.72 15.6483H133.495V15.6479Z" fill="var(--fill-0, black)"/>
<path id="Vector_26" d="M147.782 30.2735C147.22 30.7183 146.597 31.0593 145.913 31.2968C145.229 31.5339 144.477 31.6527 143.657 31.6527C142.828 31.6527 142.08 31.5208 141.411 31.2577C140.742 30.9949 140.171 30.613 139.698 30.1121C139.224 29.6118 138.861 29.0038 138.605 28.2881C138.35 27.5727 138.223 26.7698 138.223 25.8802C138.223 24.9757 138.347 24.1608 138.594 23.434C138.842 22.7073 139.186 22.0865 139.626 21.5709C140.065 21.0557 140.589 20.6575 141.195 20.3755C141.801 20.0939 142.463 19.9531 143.18 19.9531C143.846 19.9531 144.45 20.0737 144.993 20.3147C145.536 20.5558 146.002 20.9021 146.39 21.3547C146.778 21.8073 147.078 22.3521 147.288 22.9896C147.499 23.6274 147.604 24.3428 147.604 25.1361C147.604 25.2918 147.601 25.4401 147.593 25.5812C147.586 25.722 147.575 25.8589 147.56 25.9926H140.13L140.119 26.1924C140.149 26.778 140.254 27.3085 140.436 27.7832C140.617 28.2578 140.869 28.6639 141.191 29.0009C141.513 29.3384 141.9 29.5979 142.351 29.7793C142.803 29.9613 143.31 30.052 143.873 30.052C144.561 30.052 145.183 29.9425 145.739 29.7238C146.294 29.5055 146.827 29.1844 147.338 28.7617L147.782 30.2745L147.782 30.2735ZM145.752 24.5679C145.745 24.1234 145.678 23.7153 145.552 23.3444C145.427 22.9739 145.249 22.6514 145.019 22.3769C144.789 22.1028 144.513 21.8895 144.191 21.7373C143.869 21.5851 143.511 21.509 143.119 21.509C142.741 21.509 142.391 21.5794 142.069 21.7206C141.746 21.8617 141.459 22.0616 141.208 22.3208C140.956 22.5803 140.742 22.9014 140.568 23.2829C140.395 23.6648 140.267 24.0929 140.185 24.5675L145.752 24.5679Z" fill="var(--fill-0, black)"/>
<path id="Vector_27" d="M158.806 31.4522L158.685 30.1284C158.182 30.655 157.626 31.0404 157.016 31.2854C156.406 31.53 155.758 31.6523 155.071 31.6523C154.369 31.6523 153.731 31.5226 153.158 31.2627C152.585 31.0035 152.094 30.6344 151.683 30.1562C151.273 29.6779 150.957 29.1034 150.736 28.4324C150.514 27.7611 150.403 27.018 150.403 26.2024C150.403 25.2758 150.551 24.4267 150.847 23.6555C151.142 22.8847 151.584 22.2248 152.172 21.6762C152.759 21.1275 153.49 20.703 154.362 20.4026C155.234 20.1021 156.244 19.9521 157.389 19.9521C157.545 19.9521 157.707 19.956 157.877 19.9631C158.047 19.9702 158.221 19.978 158.399 19.9851V14.7798L160.295 14.5242V31.4515H158.807L158.806 31.4522ZM158.399 21.6207C158.192 21.6132 157.988 21.6075 157.789 21.6036C157.589 21.6001 157.397 21.5979 157.212 21.5979C156.369 21.5979 155.641 21.7092 155.027 21.9315C154.414 22.1537 153.907 22.4648 153.508 22.8644C153.109 23.2644 152.815 23.7402 152.627 24.2916C152.438 24.8435 152.344 25.4525 152.344 26.1188C152.344 26.7112 152.416 27.2502 152.56 27.7352C152.704 28.2198 152.913 28.6365 153.187 28.9846C153.46 29.3327 153.793 29.6011 154.185 29.7899C154.576 29.9787 155.016 30.0733 155.504 30.0733C156.081 30.0733 156.617 29.9457 157.112 29.6897C157.607 29.4337 158.036 29.076 158.399 28.6163V21.6207Z" fill="var(--fill-0, black)"/>
<path id="Vector_28" d="M177.275 31.452H174.259L167.373 20.4081C167.217 20.156 167.077 19.9079 166.951 19.6629C166.826 19.4179 166.707 19.1736 166.596 18.929C166.618 19.1736 166.635 19.4183 166.646 19.6629C166.658 19.9075 166.663 20.156 166.663 20.4081V31.452H164.335V15.6479H167.34L174.249 26.6919C174.404 26.9439 174.543 27.1886 174.664 27.4257C174.786 27.6629 174.903 27.9004 175.014 28.1376C174.992 27.9004 174.977 27.659 174.969 27.4147C174.962 27.1701 174.958 26.929 174.958 26.6919V15.6479H177.276V31.452H177.275Z" fill="var(--fill-0, black)"/>
<path id="Vector_29" d="M183.752 29.35H189.762V31.452H181.29V15.6479H183.752V29.35Z" fill="var(--fill-0, black)"/>
</g>
</svg>
