<svg preserveAspectRatio="none" width="100%" height="100%" overflow="visible" style="display: block;" viewBox="0 0 87.8897 33" fill="none" xmlns="http://www.w3.org/2000/svg">
<g id="Group 40">
<path id="Vector" d="M83.21 20.4445H87.1433L87.2762 7.6057H83.3429L83.21 20.4445ZM45.2315 20.4445H49.1637L49.2966 7.6057H45.3644L45.2315 20.4445ZM8.67268 12.1496L16.6422 3.71064L13.5771 1.36057L4.44596 11.7796H4.28429L4.34851 1.79348H0.222561L0.0819284 20.4445H4.21342L4.28429 12.8579H4.34851L10.5828 20.4445H15.7873L8.67268 12.1496ZM31.7142 20.4445C32.6931 19.0322 33.2446 17.2815 33.2446 15.3947C33.2446 10.7867 30.6335 7.17279 25.4699 7.17279C20.6929 7.17279 17.6953 11.2815 17.6953 15.3947C17.6953 17.2815 18.177 19.0322 19.1049 20.4445H24.449C22.3184 19.8025 21.6275 17.1668 21.6275 15.5184C21.6275 13.3538 22.5322 10.1987 25.4699 10.1987C28.1165 10.1987 29.3113 12.271 29.3113 15.5184C29.3113 17.4007 28.5517 19.8373 26.4887 20.4445H31.7142ZM40.1721 20.4445L40.3426 0H36.4105L36.2399 20.4445H40.1721ZM49.2811 5.44115L49.3132 1.79348H45.3799L45.3478 5.44115H49.2811ZM64.548 15.3025C64.548 17.7459 63.1273 20.4052 60.2216 20.4052C59.1231 20.4052 58.0258 19.7867 57.6061 19.1998L57.6382 12.4262C58.4776 11.1893 59.4144 10.3842 60.8993 10.3842C63.4495 10.3842 64.548 12.9209 64.548 15.3025ZM66.8214 20.4445C67.901 18.8253 68.4802 16.816 68.4802 14.9618C68.4802 10.7249 65.9333 7.17279 61.9325 7.17279C59.9304 7.17279 58.4133 8.03748 57.7024 9.55098L57.6382 9.48913L57.7678 0H53.8345L53.7204 20.4445H66.8214ZM80.2412 10.9408L80.8868 7.32796C80.4993 7.23463 80.1128 7.17279 79.7252 7.17279C77.7243 7.23463 76.7243 8.71777 75.9503 10.509L75.9182 10.4472V7.6057H71.9849L71.852 20.4445H75.8163L75.885 13.5382C76.6922 11.8999 77.7896 10.8171 79.3055 10.8171C79.5968 10.8171 79.919 10.8789 80.2412 10.9408ZM87.2596 5.44115L87.2917 1.79348H83.3595L83.3263 5.44115H87.2596Z" fill="var(--fill-0, black)"/>
<path id="Vector_2" d="M86.4401 28.0334C86.4401 28.5562 86.1899 29.0026 85.5266 29.0026C84.9884 29.0026 84.6928 28.5562 84.6928 28.0581C84.6928 27.4576 85.0693 27.0461 85.5532 27.0461C86.1899 27.0461 86.4401 27.4576 86.4401 28.0334ZM84.0937 31.7822C84.0937 31.3876 84.2908 31.1132 85.0693 30.7095C86.5121 30.9591 86.8875 31.1132 86.8875 31.6023C86.8875 32.3062 85.9562 32.5885 85.4015 32.5885C84.8821 32.5885 84.0937 32.4175 84.0937 31.7822ZM87.8897 26.7504L86.4047 26.7762C86.1522 26.6346 85.8577 26.584 85.5709 26.584C84.7293 26.584 83.9785 27.1484 83.9785 27.9895C83.9785 28.4865 84.1302 28.8385 84.5411 29.1477C83.7714 29.5693 83.5035 29.792 83.5035 30.0495C83.5035 30.307 83.7892 30.5296 84.5765 30.5982V30.6162C84.1025 30.8557 83.3783 31.1987 83.3783 31.7991C83.3783 32.7852 84.6396 33 85.4369 33C86.3593 33 87.6571 32.503 87.6571 31.4561C87.6571 30.6927 86.9063 30.4172 85.7414 30.2541C84.4691 30.0742 84.3262 29.9539 84.3262 29.7999C84.3262 29.6964 84.4071 29.5941 84.819 29.3028C85.0693 29.4142 85.3118 29.4648 85.5986 29.4648C86.4667 29.4648 87.1555 28.8654 87.1555 28.039C87.1555 27.7635 87.0746 27.4801 86.8332 27.2125L87.8897 27.2384V26.7504ZM78.722 30.9749H79.4373L79.4727 27.9895C79.9301 27.4576 80.342 27.2002 80.8082 27.2002C81.301 27.2002 81.6232 27.4149 81.6232 27.8782C81.6232 28.2987 81.6144 28.6754 81.6144 29.0532L81.5966 30.9749H82.312L82.3297 28.8553C82.3297 28.5304 82.3386 28.2043 82.3386 27.8782C82.3386 27.0888 82.0075 26.584 80.9787 26.584C80.4494 26.584 79.8404 26.8752 79.4639 27.3891H79.4462L79.4727 26.7031H78.7585L78.722 30.9749ZM73.7622 28.8227C73.7622 29.1488 73.7533 29.4749 73.7533 29.801C73.7533 30.5892 74.0833 31.0952 75.1132 31.0952C75.6414 31.0952 76.2504 30.804 76.6269 30.2901H76.6446L76.618 30.9749H77.3334L77.3688 26.7031H76.6535L76.618 29.6897C76.1607 30.2215 75.7488 30.4779 75.2837 30.4779C74.7909 30.4779 74.4676 30.2642 74.4676 29.801C74.4676 29.3804 74.4775 29.0026 74.4775 28.6248L74.4953 26.7031H73.7799L73.7622 28.8227ZM70.1002 26.7031V27.217H70.861L70.8432 28.7789C70.8344 29.3714 70.8344 29.7234 70.8344 30.0067C70.8344 30.6837 71.1024 31.0952 71.7911 31.0952C72.1853 31.0952 72.615 30.9153 72.9107 30.7264L72.677 30.2811C72.5076 30.3834 72.2031 30.5296 71.9617 30.5296C71.6571 30.5296 71.5497 30.3328 71.5497 29.9809C71.5497 29.7661 71.5497 29.449 71.5586 28.9678L71.5763 27.217H72.8032V26.7031H71.5852L71.6029 25.1256H70.8875L70.8698 26.7031H70.1002ZM66.9388 27.217H67.808L67.7715 30.9749H68.4868L68.5234 27.217H69.7138V26.7031H68.4957L68.5234 26.0172C68.5411 25.5023 68.8002 25.0379 69.4004 25.0379H69.7138V24.4734C68.6928 24.4734 67.942 24.8332 67.8435 25.8801C67.8169 26.1623 67.808 26.4546 67.808 26.7031H66.9388V27.217ZM65.1847 25.8115H65.9532V25.039H65.1847V25.8115ZM65.1847 30.9749H65.9001L65.9355 26.7031H65.2202L65.1847 30.9749ZM61.6124 26.7031V27.217H62.3732L62.3555 28.7789C62.3466 29.3714 62.3466 29.7234 62.3466 30.0067C62.3466 30.6837 62.6146 31.0952 63.3034 31.0952C63.6976 31.0952 64.1272 30.9153 64.4229 30.7264L64.1892 30.2811C64.0198 30.3834 63.7153 30.5296 63.4728 30.5296C63.1694 30.5296 63.062 30.3328 63.062 29.9809C63.062 29.7661 63.062 29.449 63.0708 28.9678L63.0885 27.217H64.3144V26.7031H63.0974L63.1151 25.1256H62.3998L62.3821 26.7031H61.6124ZM57.1443 30.6241C57.6626 30.9322 58.173 31.0952 58.8441 31.0952C60.2061 31.0952 60.8495 30.2721 60.8495 29.3883C60.8495 27.5262 58.0656 27.8265 58.0656 26.5221C58.0656 25.8103 58.6747 25.4843 59.2117 25.4843C59.7942 25.4843 60.1618 25.69 60.5284 25.9217L60.8229 25.3819C60.3313 25.0986 59.7853 24.9187 59.1763 24.9187C58.0745 24.9187 57.296 25.5618 57.296 26.4794C57.296 28.5562 60.0267 27.9389 60.0267 29.449C60.0267 30.1091 59.5251 30.5296 58.7998 30.5296C58.3159 30.5296 57.8154 30.3148 57.4843 30.0922L57.1443 30.6241ZM50.6243 28.2819C50.7417 27.6983 51.1713 27.0967 51.8435 27.0967C52.5688 27.0967 52.8379 27.6724 52.8379 28.2819H50.6243ZM53.5521 28.744V28.6079C53.5521 27.4576 53.0339 26.584 51.8335 26.584C50.6332 26.584 49.7927 27.6634 49.7927 28.8385C49.7927 30.2384 50.508 31.0952 51.7449 31.0952C52.4071 31.0952 52.9896 30.7702 53.4447 30.3328L53.097 29.9629C52.7116 30.298 52.3351 30.5813 51.8247 30.5813C50.9111 30.5813 50.5623 29.783 50.5623 28.8902V28.744H53.5521ZM47.877 30.9749H48.5923L48.6455 24.542H47.9313L47.877 30.9749ZM45.7099 30.9749H46.4253L46.4795 24.542H45.7642L45.7099 30.9749ZM41.6349 28.2819C41.7523 27.6983 42.1819 27.0967 42.8541 27.0967C43.5794 27.0967 43.8485 27.6724 43.8485 28.2819H41.6349ZM44.5627 28.744V28.6079C44.5627 27.4576 44.0445 26.584 42.8452 26.584C41.646 26.584 40.8033 27.6634 40.8033 28.8385C40.8033 30.2384 41.5186 31.0952 42.7555 31.0952C43.4177 31.0952 44.0002 30.7702 44.4564 30.3328L44.1076 29.9629C43.7223 30.298 43.3469 30.5813 42.8353 30.5813C41.9217 30.5813 41.5729 29.783 41.5729 28.8902V28.744H44.5627ZM38.0527 30.9749H38.768L38.8034 28.1694C39.1888 27.4835 39.6638 27.2519 39.9595 27.2519C40.0569 27.2519 40.1655 27.2777 40.2363 27.2946L40.4512 26.6436C40.3526 26.6087 40.2186 26.584 40.0669 26.584C39.4213 26.584 38.9828 27.1664 38.8311 27.5521L38.8134 27.5352L38.8223 26.7031H38.0892L38.0527 30.9749ZM32.9135 28.8227C32.9135 29.1488 32.9046 29.4749 32.9046 29.801C32.9046 30.5892 33.2357 31.0952 34.2645 31.0952C34.7938 31.0952 35.4028 30.804 35.7793 30.2901H35.797L35.7693 30.9749H36.4847L36.5212 26.7031H35.8059L35.7693 29.6897C35.3131 30.2215 34.9012 30.4779 34.435 30.4779C33.9422 30.4779 33.62 30.2642 33.62 29.801C33.62 29.3804 33.6288 29.0026 33.6288 28.6248L33.6466 26.7031H32.9312L32.9135 28.8227ZM29.2515 26.7031V27.217H30.0123L29.9945 28.7789C29.9857 29.3714 29.9857 29.7234 29.9857 30.0067C29.9857 30.6837 30.2537 31.0952 30.9424 31.0952C31.3366 31.0952 31.7663 30.9153 32.0619 30.7264L31.8294 30.2811C31.6589 30.3834 31.3544 30.5296 31.113 30.5296C30.8084 30.5296 30.701 30.3328 30.701 29.9809C30.701 29.7661 30.701 29.449 30.7099 28.9678L30.7276 27.217H31.9545V26.7031H30.7365L30.7542 25.1256H30.0399L30.0211 26.7031H29.2515ZM27.4964 30.9749H28.2117L28.266 24.542H27.5506L27.4964 30.9749ZM22.4292 28.8227C22.4292 29.1488 22.4203 29.4749 22.4203 29.801C22.4203 30.5892 22.7503 31.0952 23.7801 31.0952C24.3083 31.0952 24.9174 30.804 25.2939 30.2901H25.3116L25.285 30.9749H26.0004L26.0358 26.7031H25.3205L25.285 29.6897C24.8288 30.2215 24.4158 30.4779 23.9507 30.4779C23.4579 30.4779 23.1357 30.2642 23.1357 29.801C23.1357 29.3804 23.1445 29.0026 23.1445 28.6248L23.1623 26.7031H22.4469L22.4292 28.8227ZM17.7462 30.9749H18.4439L18.4704 28.7789L20.7261 31.1638L21.2908 30.7264L19.3563 28.6675L21.2366 26.9348L20.7626 26.4884L18.4704 28.762L18.5059 24.542H17.7994L17.7462 30.9749ZM14.773 30.9749H15.4884L15.5249 28.1694C15.9092 27.4835 16.3842 27.2519 16.6799 27.2519C16.7784 27.2519 16.8858 27.2777 16.9567 27.2946L17.1715 26.6436C17.0741 26.6087 16.939 26.584 16.7873 26.584C16.1428 26.584 15.7032 27.1664 15.5515 27.5521L15.5338 27.5352L15.5426 26.7031H14.8096L14.773 30.9749ZM10.8054 28.2819C10.9228 27.6983 11.3525 27.0967 12.0246 27.0967C12.7499 27.0967 13.019 27.6724 13.019 28.2819H10.8054ZM13.7343 28.744V28.6079C13.7343 27.4576 13.215 26.584 12.0158 26.584C10.8165 26.584 9.97493 27.6634 9.97493 28.8385C9.97493 30.2384 10.6892 31.0952 11.9261 31.0952C12.5883 31.0952 13.1707 30.7702 13.6269 30.3328L13.2781 29.9629C12.8928 30.298 12.5174 30.5813 12.0069 30.5813C11.0922 30.5813 10.7434 29.783 10.7434 28.8902V28.744H13.7343ZM6.83119 26.7031V27.217H7.59304L7.57532 28.7789C7.56535 29.3714 7.56535 29.7234 7.56535 30.0067C7.56535 30.6837 7.83444 31.0952 8.5232 31.0952C8.91631 31.0952 9.34706 30.9153 9.64162 30.7264L9.40908 30.2811C9.23965 30.3834 8.93513 30.5296 8.69263 30.5296C8.38811 30.5296 8.2807 30.3328 8.2807 29.9809C8.2807 29.7661 8.2807 29.449 8.28955 28.9678L8.30838 27.217H9.53421V26.7031H8.31724L8.33496 25.1256H7.61961L7.6019 26.7031H6.83119ZM2.33649 30.9749H3.05183L3.08837 27.9895C3.5446 27.4576 3.95653 27.2002 4.42272 27.2002C4.91549 27.2002 5.23772 27.4149 5.23772 27.8782C5.23772 28.2987 5.22886 28.6754 5.22886 29.0532L5.21115 30.9749H5.92649L5.94421 28.8553C5.94421 28.5304 5.95306 28.2043 5.95306 27.8782C5.95306 27.0888 5.62197 26.584 4.59325 26.584C4.06394 26.584 3.4549 26.8752 3.07952 27.3891H3.06069L3.08837 26.7031H2.37303L2.33649 30.9749ZM0 30.9749H0.768495L0.822754 25.039H0.0531524L0 30.9749Z" fill="var(--fill-0, black)"/>
<path id="Vector_3" d="M0.0838791 20.6548H87.1342" stroke="var(--stroke-0, black)" stroke-width="0.577"/>
</g>
</svg>
