<svg preserveAspectRatio="none" width="100%" height="100%" overflow="visible" style="display: block;" viewBox="0 0 49.9375 33" fill="none" xmlns="http://www.w3.org/2000/svg">
<path id="Union" d="M41.5088 0C42.5464 0.270856 43.5719 0.700566 44.623 0.776367C46.3863 0.904153 48.1652 0.806983 49.9375 0.804688V3.70215H47.791C47.8273 3.8322 47.8336 3.91285 47.8691 3.97559C49.357 6.56492 48.9699 9.45444 47.0215 11.5908C45.1479 13.6453 42.7831 14.5018 40.0518 14.3105C39.3711 14.2631 38.8503 14.3315 38.6143 15.0742C38.5689 15.2188 38.424 15.3283 38.3408 15.4629C37.561 16.7284 36.7202 17.9605 36.0273 19.2734C35.4434 20.3791 35.8304 21.1237 37.0596 21.2568C38.8431 21.4496 40.6413 21.5197 42.4346 21.6016C44.3633 21.6896 46.1756 21.9858 47.7012 23.3867C49.4742 25.0142 49.7162 28.1889 48.748 29.9756C47.8819 31.5741 46.3721 32.2056 44.708 32.4795C43.28 32.7144 41.8331 32.8309 40.3945 33H20.0371L20.0391 32.999V29.3193H21.2949C27.8908 29.3193 34.4871 29.3311 41.083 29.3066C42.083 29.3028 43.09 29.1765 44.0801 29.0234C45.0346 28.8758 45.7329 28.1616 45.8154 27.3965C45.8986 26.6253 45.4623 25.935 44.4443 25.583C43.6849 25.3206 42.8576 25.1877 42.0527 25.1426C40.0445 25.0301 38.0208 25.1047 36.0225 24.9111C33.6883 24.6852 31.8238 22.6861 32.084 20.0234C32.2626 18.1957 33.1763 16.7604 34.0732 15.2861C34.4461 14.6725 34.8692 14.0898 35.2686 13.4922C35.5748 13.0332 35.5744 12.6788 35.1035 12.2627C33.3063 10.678 32.5672 8.65283 32.8584 6.25781C33.2881 2.73139 35.7898 0.820942 39.0967 0.179688C39.269 0.146045 39.4326 0.0612039 39.5996 0H41.5088ZM3.61426 29.3018H17.6533V32.999H0V0.964844H3.61426V29.3018ZM10.4277 0.899414C10.8725 0.91927 11.3177 0.92122 11.7744 0.918945C12.232 0.916652 12.701 0.910159 13.1924 0.910156H13.1943V1.96289C13.1974 5.96009 13.1776 9.95767 13.2139 13.9541C13.229 15.6695 13.373 17.3749 14.332 18.8906C15.0798 20.0726 16.2384 20.8667 17.5303 21.1904C17.6018 21.2083 17.6738 21.2243 17.7461 21.2393C17.8019 21.2508 17.8579 21.2616 17.9141 21.2715C18.0751 21.2996 18.2376 21.3213 18.4014 21.335C18.5526 21.3476 18.7047 21.3535 18.8574 21.3535C19.2727 21.3533 19.6923 21.307 20.1074 21.21C22.6428 20.6168 24.2667 18.3823 24.3477 15.3691C24.4445 11.7774 24.4136 8.1819 24.4355 4.58789C24.4416 3.56796 24.4141 2.54791 24.458 1.53027C24.4671 1.32158 24.7177 0.955393 24.8721 0.946289C25.3711 0.9195 25.8719 0.912297 26.3848 0.912109C26.8977 0.911906 27.423 0.918944 27.9727 0.918945V7.17383C27.9711 9.88327 28.0365 12.5954 27.9473 15.3018C27.8701 17.6478 27.4079 19.9123 25.9541 21.8643C25.0456 23.0841 23.9486 23.9284 22.6885 24.4463C22.5819 24.4901 22.4741 24.5312 22.3652 24.5703C21.5939 24.8473 20.7651 25.0109 19.8818 25.0635C19.4102 25.0914 18.9396 25.1068 18.4717 25.1016C18.2115 25.0987 17.9524 25.0886 17.6943 25.0703C17.5232 25.0581 17.3526 25.0418 17.1826 25.0215C16.6015 24.9522 16.0284 24.8317 15.4658 24.6396C15.4111 24.6209 15.3563 24.6021 15.3018 24.582C14.9943 24.4688 14.6895 24.3353 14.3896 24.1738C13.1114 23.4852 12.0334 22.5665 11.2891 21.3125C10.1469 19.3867 9.67474 17.2633 9.6709 15.0283C9.66333 10.5751 9.671 6.12219 9.64453 1.66895C9.64122 1.1339 9.79757 0.926417 10.2256 0.900391L10.4258 0.899414H10.4277ZM44.7754 5.48633C43.7179 3.5244 41.1798 2.67001 39.0459 3.40918C37.3828 3.9846 36.3131 5.3742 36.2139 6.91504C36.0603 9.29386 38.394 11.3053 40.8408 11.457C41.6464 11.1655 42.5152 10.9852 43.2451 10.5605C45.0075 9.53598 45.8819 7.54074 44.7754 5.48633Z" fill="var(--fill-0, black)"/>
</svg>
