<svg preserveAspectRatio="none" width="100%" height="100%" overflow="visible" style="display: block;" viewBox="0 0 84.1372 27.7135" fill="none" xmlns="http://www.w3.org/2000/svg">
<g id="Group 39">
<path id="Vector" d="M60.9682 0L45.7414 27.7135H51.1541L66.3639 0H60.9682Z" fill="var(--fill-0, black)"/>
<path id="Vector_2" d="M52.0754 0L36.8502 27.7135H42.2621L57.4743 0H52.0754Z" fill="var(--fill-0, black)"/>
<path id="Vector_3" d="M19.2376 4.24146V23.4414H24.188L30.5705 12.3629V23.4414H35.6799L46.2887 4.24146H41.5459L35.6102 14.6623V4.24146H30.2129L24.188 14.4544V4.24146H19.2376Z" fill="var(--fill-0, black)"/>
<path id="Vector_4" d="M57.0261 23.4414H61.8265L67.7054 13.1692V23.4414H72.8635L79.1268 13.1992V23.4414H84.1372V4.24146H79.1268L72.8635 15.3191V4.24146H67.5854L57.0261 23.4414Z" fill="var(--fill-0, black)"/>
<path id="Vector_5" d="M5.11588 16.8722C5.15075 18.6844 6.64278 20.1434 8.4762 20.1434C10.3258 20.1434 11.8252 19.2138 11.8252 18.0666C11.8252 17.4024 11.453 16.6035 9.93174 16.2154C9.93174 16.2154 8.81434 15.8712 8.09832 15.6601C7.06607 15.3572 6.45952 15.2712 5.44267 14.9172C4.76963 14.6825 4.41122 14.508 3.74305 14.2457C1.67854 13.1456 0.526265 11.3537 0.656007 9.31828C0.477612 5.97405 4.18742 3.43604 8.54512 3.43604C12.9012 3.43604 16.4334 6.06904 16.4334 9.31828V9.85495H11.2875L11.3038 9.4831C11.3038 8.40246 10.068 7.52722 8.54512 7.52722L8.2086 7.54184C6.87226 7.54184 5.78486 8.14671 5.78486 8.89366V9.10962C5.78486 9.65279 6.26167 10.1497 6.9793 10.4371C7.80073 10.7659 8.21671 10.8706 9.05193 11.111C9.98931 11.3765 10.5286 11.5023 11.4538 11.8116C12.439 12.1421 13.944 12.7656 13.944 12.7656C15.6274 13.4996 16.9702 15.2387 16.9702 16.8877C17.2094 21.233 14.197 23.8895 8.48512 23.8895C2.80323 23.8895 0 21.3004 0 16.8714L5.11588 16.8722Z" fill="var(--fill-0, black)"/>
</g>
</svg>
