<svg preserveAspectRatio="none" width="100%" height="100%" overflow="visible" style="display: block;" viewBox="0 0 129.837 17" fill="none" xmlns="http://www.w3.org/2000/svg">
<path id="Vector" d="M0 16.9999L2.40536 13.4006H16.3561C17.1464 13.4006 17.6619 12.9186 17.6619 12.1794V10.0906H5.66959C2.09596 10.0906 0.515323 8.61238 0.515323 5.33456V3.92054C0.515453 1.47826 2.06168 0 4.50132 0H4.77618V5.27033C4.77618 6.00946 5.29164 6.49152 6.08195 6.49152H17.6961C20.342 6.49152 21.9226 7.96979 21.9226 10.38V12.2439C21.9226 15.4253 20.2389 17 16.7683 17L0 16.9999ZM83.5993 13.3364H94.3888C96.1756 13.3364 97.3094 12.308 97.3094 10.7013V6.2987C97.3094 4.69185 96.1756 3.6636 94.3888 3.6636H83.5993V13.3364ZM79.2698 16.9999V0H94.4919C99.0276 0 101.639 2.44228 101.639 6.4914V10.5084C101.639 14.5575 99.0276 16.9998 94.4919 16.9998L79.2698 16.9999ZM58.2882 13.3364H67.3941C69.0434 13.3364 70.1086 12.3723 70.1086 10.862V6.13793C70.1086 4.62749 69.0434 3.66347 67.3941 3.66347H58.2882C56.6389 3.66347 55.5737 4.62761 55.5737 6.13793V10.862C55.5737 12.3724 56.6389 13.3364 58.2882 13.3364ZM67.4972 16.9999H58.1853C53.787 16.9999 51.2442 14.6218 51.2442 10.6691V6.33075C51.2442 2.37804 53.7869 0 58.1853 0H67.4972C71.8954 0 74.4383 2.37804 74.4383 6.33075V10.6691C74.4383 14.6218 71.8955 16.9999 67.4972 16.9999ZM103.413 16.9999L113.618 0H119.632L129.837 16.9999H124.889L123.136 14.0755H114.443L112.106 10.6049L108.258 16.9999H103.413ZM112.21 10.4121H120.937L116.573 3.18153L112.21 10.4121ZM9.03704 3.535L6.563 0H21.5102L19.1049 3.535H9.03704ZM26.6868 16.9999V0H31.0164V6.62H36.7548L44.2112 0H49.9496L40.4658 8.45173L50.1214 16.9999H44.0394L36.583 10.2835H31.0165V16.9999H26.6868Z" fill="var(--fill-0, black)"/>
</svg>
