<svg preserveAspectRatio="none" width="100%" height="100%" overflow="visible" style="display: block;" viewBox="0 0 54.3949 32.0116" fill="none" xmlns="http://www.w3.org/2000/svg">
<g id="layer1">
<g id="path56">
<path d="M24.2259 10.3657H38.4013ZM31.3252 3.37387V17.4298Z" fill="var(--fill-0, black)"/>
<path d="M24.2259 10.3657H38.4013M31.3252 3.37387V17.4298" stroke="var(--stroke-0, black)" stroke-width="0.511906" stroke-miterlimit="3.864"/>
</g>
<path id="path58" d="M15.0193 15.665C19.818 16.0873 20.5616 16.0616 20.5616 17.3088V25.3943C20.5616 27.1266 20.7243 31.4741 14.0782 31.6591C4.90018 31.915 5.71699 16.9842 5.71699 16.9842C5.71699 16.9842 5.62401 0.30255 14.1478 0.256039C21.8978 0.22112 25.7438 10.8544 25.7438 13.6581V0.360725C25.7438 0.360725 23.5361 5.04917 22.7692 5.04917C22.3161 5.04917 19.5391 0.267702 14.1478 0.267702C8.75641 0.267702 0.255953 5.77044 0.255953 16.9842C0.255953 28.198 8.06286 31.5241 13.9852 31.6591C19.4578 31.7836 20.6779 27.422 23.4083 27.422C26.0226 27.422 26.2318 31.7416 26.2318 32.0116V17.3088V17.3158C26.2318 16.078 27.0567 16.0756 31.7161 15.665H15.0193Z" fill="var(--fill-0, black)" stroke="var(--stroke-0, black)" stroke-width="0.511906" stroke-miterlimit="3.864"/>
<path id="path60" d="M35.7373 0.0116391L35.7197 0.52411H35.7373L40.1828 0.802471H40.196C41.4528 0.813568 41.9492 1.2473 42.186 1.65508C42.4228 2.06287 42.3845 2.46358 42.3845 2.46358L42.3824 2.47687V2.49016L42.3956 26.3333C42.3956 26.3333 42.3762 27.622 41.8618 28.9C41.6045 29.5391 41.2267 30.1683 40.6771 30.6318C40.1367 31.0876 39.4296 31.3882 38.4666 31.3984C38.4477 31.3984 38.4279 31.4005 38.4092 31.4005C38.3364 31.4005 38.2577 31.3914 38.182 31.3873C38.0884 31.3829 37.9953 31.3788 37.904 31.3696C37.5719 31.3313 37.2199 31.2583 36.8583 31.1487C36.7319 31.1104 36.6025 31.063 36.4744 31.0162C35.5378 30.6263 34.7733 29.9812 34.1954 29.2623C33.7264 28.6788 33.3835 28.0482 33.1828 27.4819C33.0491 27.1047 32.9874 26.7605 32.9776 26.4812C33.3819 26.8117 34.0924 27.2323 35.283 27.2323C36.333 27.2323 37.2329 26.8779 37.8642 26.2471C38.4955 25.6162 38.8504 24.7153 38.8504 23.6627C38.8504 21.5433 37.244 20.0599 35.261 20.0599C34.2338 20.0599 33.216 20.3711 32.4569 21.1135C31.6978 21.8559 31.2171 23.0173 31.2171 24.6434V25.2177L31.2612 25.178C31.42 27.2536 32.4542 28.8988 33.7829 30.031C34.7092 30.8204 35.7693 31.368 36.7832 31.6612C36.9409 31.7099 37.1032 31.7499 37.2686 31.7849C37.2901 31.7894 37.3112 31.7938 37.3326 31.7982C37.4951 31.8305 37.6591 31.8575 37.8289 31.8755C37.9699 31.8917 38.1059 31.8995 38.2415 31.9042C38.302 31.9061 38.3589 31.9152 38.4202 31.9152C38.4365 31.9152 38.4502 31.911 38.4665 31.9108C40.5345 31.9031 42.9314 31.4722 44.8467 30.3579C46.7795 29.2335 48.2155 27.3778 48.2155 24.639V2.47899C48.2155 2.47899 48.1833 2.08881 48.4251 1.68816C48.6669 1.28752 49.1693 0.859868 50.4151 0.84877H50.4328L54.3685 0.52404H54.3729L54.3949 0.521849L54.3729 0.0115684H35.7375L35.7373 0.0116391Z" fill="var(--fill-0, black)"/>
</g>
</svg>
