<svg preserveAspectRatio="none" width="100%" height="100%" overflow="visible" style="display: block;" viewBox="0 0 101.872 31.9996" fill="none" xmlns="http://www.w3.org/2000/svg">
<path id="Union" d="M66.5898 6.91852C67.1035 6.91852 67.544 7.10274 67.9111 7.4693C68.2782 7.83651 68.4619 8.27776 68.4619 8.79157V30.1636C68.4619 30.6775 68.2782 31.1132 67.9111 31.4673C67.544 31.822 67.1035 31.9996 66.5898 31.9996C66.0763 31.9996 65.6411 31.822 65.2871 31.4673C64.9318 31.1132 64.7539 30.6775 64.7539 30.1636V16.5767C63.6525 18.8045 62.6802 20.8126 61.8359 22.5992C60.9918 24.3862 60.2761 25.9036 59.6885 27.1519C59.1015 28.401 58.5138 29.6866 57.9268 31.0084C57.6329 31.6694 57.1061 31.9996 56.3477 31.9996C55.5894 31.9995 55.0498 31.6566 54.7324 30.9713L47.8682 16.6138V30.1265C47.8682 30.6404 47.6845 31.0815 47.3174 31.4488C46.9503 31.8159 46.5097 31.9996 45.9961 31.9996C45.4824 31.9995 45.0471 31.816 44.6924 31.4488C44.3377 31.0815 44.1602 30.6404 44.1602 30.1265V8.75543C44.1602 8.24088 44.3377 7.80622 44.6924 7.45075C45.047 7.09665 45.4818 6.91855 45.9961 6.91852C46.4117 6.91852 46.7606 7.02896 47.042 7.24958C47.3234 7.46953 47.5502 7.75194 47.7217 8.0943L56.3477 26.1607L64.9014 8.05719C65.0479 7.71488 65.2684 7.43918 65.5615 7.23102C65.8554 7.0235 66.1979 6.91853 66.5898 6.91852ZM74.4824 6.91852C75.0458 6.91854 75.5098 7.10916 75.877 7.48883C76.2439 7.86849 76.4277 8.33904 76.4277 8.90192V30.0172C76.4277 30.58 76.244 31.0513 75.877 31.4302C75.5098 31.8099 75.0445 31.9996 74.4824 31.9996C73.9203 31.9996 73.4473 31.8099 73.0684 31.4302C72.689 31.0513 72.5001 30.5799 72.5 30.0172V8.90192C72.5 8.33913 72.6891 7.86846 73.0684 7.48883C73.4473 7.10914 73.919 6.91852 74.4824 6.91852ZM82.0107 5.63141C82.0448 5.56495 86.4392 -2.97845 95.1387 1.10504C104.874 5.67583 101.188 13.7603 101.188 13.7603L101.55 14.1773C101.55 14.1773 100.79 17.1412 100.531 17.3541C100.273 17.5655 99.9766 17.4263 99.9766 17.4263C99.9758 17.426 99.8931 17.3856 99.7383 17.3101C99.5843 17.661 99.4014 17.9984 99.1865 18.3209C98.4281 19.4593 97.3265 20.2732 95.8828 20.7623C96.0052 20.9829 96.2011 21.3689 96.4707 21.9195C96.7397 22.4707 97.1492 23.3153 97.7002 24.4537C98.2506 25.5914 99.0274 27.1894 100.031 29.2457C100.153 29.4656 100.215 29.7352 100.215 30.0533C100.215 30.4205 100.123 30.7641 99.9395 31.0816C99.7562 31.4004 99.4923 31.6451 99.1494 31.816C98.9296 31.9383 98.6484 31.9996 98.3057 31.9996C97.9386 31.9996 97.6024 31.9013 97.2969 31.7056C96.9906 31.5099 96.7509 31.2411 96.5801 30.898L91.9912 21.4244H84.3926V30.0533C84.3926 30.6163 84.197 31.0815 83.8057 31.4488C83.4144 31.816 82.9489 31.9995 82.4111 31.9996C81.8733 31.9996 81.4137 31.8098 81.0342 31.4302C80.6546 31.0512 80.4648 30.5921 80.4648 30.0533V9.19586C80.4648 8.77357 80.5828 8.40079 80.8164 8.07575C78.9731 7.17597 77.7239 6.56748 77.5869 6.49958C76.781 6.10029 82.0107 5.63141 82.0107 5.63141ZM8.55273 7.24958C10.4125 7.24958 12.0893 7.56743 13.582 8.20368C15.0748 8.84065 16.3481 9.71609 17.4004 10.8297C18.452 11.9439 19.2598 13.2414 19.8232 14.7222C20.386 16.2037 20.667 17.7891 20.667 19.4781C20.6669 21.1669 20.386 22.7523 19.8232 24.233C19.2598 25.7144 18.452 27.012 17.4004 28.1256C16.3481 29.2398 15.0748 30.1152 13.582 30.7515C12.0893 31.3878 10.4125 31.7056 8.55273 31.7056H1.98242C1.41914 31.7056 0.948187 31.5167 0.569336 31.1373C0.189823 30.7576 5.76387e-05 30.2867 0 29.7232V9.19586C0 8.63286 0.189766 8.16762 0.569336 7.80036C0.948239 7.43314 1.41899 7.24958 1.98242 7.24958H8.55273ZM38.8379 7.24958C39.3516 7.24958 39.7927 7.42095 40.1592 7.76325C40.5263 8.10628 40.71 8.53451 40.71 9.0484C40.71 9.5623 40.5263 10.0034 40.1592 10.3707C39.7927 10.7379 39.3516 10.9215 38.8379 10.9215H27.1641V17.3843H33.6992C34.2127 17.3844 34.6474 17.5619 35.002 17.9166C35.3566 18.272 35.5342 18.7064 35.5342 19.2203C35.5342 19.734 35.3564 20.1692 35.002 20.524C34.6473 20.8787 34.2128 21.0561 33.6992 21.0562H27.1641V28.0338H39.3887C39.9024 28.0338 40.337 28.2112 40.6924 28.566C41.0464 28.9214 41.2236 29.3558 41.2236 29.8697C41.2236 30.3834 41.0462 30.8187 40.6924 31.1734C40.337 31.5282 39.9024 31.7056 39.3887 31.7056H25.2197C24.6563 31.7056 24.1846 31.5169 23.8057 31.1373C23.4262 30.7576 23.2374 30.2867 23.2373 29.7232V9.19586C23.2373 8.63298 23.4262 8.16758 23.8057 7.80036C24.1846 7.4331 24.6563 7.24958 25.2197 7.24958H38.8379ZM3.96484 28.0709H8.33301C9.67852 28.0709 10.8716 27.8561 11.9121 27.4273C12.9519 26.9992 13.8332 26.3996 14.5557 25.6285C15.2767 24.8574 15.8214 23.9456 16.1885 22.8931C16.5556 21.8406 16.7392 20.7021 16.7393 19.4781C16.7393 18.2539 16.5556 17.1154 16.1885 16.0621C15.8214 15.0103 15.2767 14.0978 14.5557 13.3267C13.8332 12.5556 12.952 11.9499 11.9121 11.5093C10.8716 11.0688 9.67852 10.8482 8.33301 10.8482H3.96484V28.0709ZM84.3926 18.0455H92.543C93.6194 18.0454 94.5301 17.7334 95.2773 17.109C95.7535 16.7104 96.0768 16.2098 96.249 15.607C93.5897 14.3097 89.8973 12.5073 86.4971 10.8482H84.3926V18.0455Z" fill="var(--fill-0, black)"/>
</svg>
