<svg preserveAspectRatio="none" width="100%" height="100%" overflow="visible" style="display: block;" viewBox="0 0 35.9549 36" fill="none" xmlns="http://www.w3.org/2000/svg">
<g id="Group 48">
<path id="Vector" d="M29.7643 20.9256C29.7643 21.5207 29.269 22.0165 28.6747 22.0165C28.0804 22.0165 27.5852 21.5207 27.5852 20.9256C27.5852 20.3306 28.0804 19.8347 28.6747 19.8347C29.269 19.8347 29.7643 20.281 29.7643 20.9256ZM26.0995 22.0165H24.2671V18.595H21.048V22.0165H19.2155V13.9835H21.048V17.0579H24.2671V13.9835H26.0995V22.0165ZM17.6308 13.9835L14.4612 22.0165H13.8669L17.0365 13.9835H17.6308ZM9.36015 16.1157C9.36015 16.3141 9.40967 16.4628 9.55825 16.562C9.75635 16.7603 10.004 16.8099 10.5487 17.0083L11.143 17.2562C11.4897 17.405 11.9354 17.5537 12.2326 17.8512C12.6783 18.2975 12.8269 18.8926 12.8269 19.3388C12.8269 20.1818 12.5297 20.876 12.1335 21.3223C11.4402 22.0661 10.4002 22.1653 9.8554 22.1653C9.2611 22.1653 8.76585 22.0661 8.27061 21.8182C7.87441 21.6198 7.37916 21.2231 7.08202 20.9256L8.02298 19.5868C8.22108 19.7851 8.56776 20.0826 8.76585 20.1818C9.063 20.3802 9.40967 20.4793 9.75635 20.4793C10.004 20.4793 10.3506 20.4298 10.5983 20.1818C10.7468 20.0331 10.8954 19.8347 10.8954 19.5372C10.8954 19.2893 10.7964 19.0909 10.5983 18.9421C10.4002 18.7438 9.90492 18.595 9.6573 18.4959L9.01348 18.2479C8.61728 18.0992 8.22108 17.9504 7.87441 17.6033C7.42869 17.157 7.37917 16.6116 7.37917 16.2149C7.37917 15.5207 7.57726 14.876 8.07251 14.4298C8.61728 13.8347 9.31062 13.686 10.0535 13.686C10.5983 13.686 11.4897 13.7851 12.4307 14.4793L11.5888 15.8182C10.9945 15.2727 10.4497 15.2231 10.2516 15.2231C10.004 15.2231 9.70682 15.2727 9.4592 15.5207C9.4592 15.7686 9.36015 15.9174 9.36015 16.1157ZM35.9549 18C35.9549 8.08265 27.9319 0 17.9774 0C8.02298 0 0 8.03306 0 18C0 27.9174 8.02298 36 17.9774 36C27.9319 36 35.9549 27.9174 35.9549 18Z" fill="var(--fill-0, black)"/>
</g>
</svg>
