<svg preserveAspectRatio="none" width="100%" height="100%" overflow="visible" style="display: block;" viewBox="0 0 121.848 26.7303" fill="none" xmlns="http://www.w3.org/2000/svg">
<g id="Group 45">
<path id="Vector" d="M13.3483 25.2218C6.80823 25.2218 1.50597 19.9125 1.50597 13.3653C1.50597 6.81807 6.80823 1.50806 13.3483 1.50806C19.8884 1.50806 25.1906 6.81642 25.1906 13.3655C25.1906 19.9146 19.8884 25.2218 13.3483 25.2218ZM13.3483 0C5.97632 0 0 5.98325 0 13.3655C0 20.7478 5.97632 26.7303 13.3483 26.7303C20.7203 26.7303 26.6968 20.7462 26.6968 13.3655C26.6968 5.98489 20.7207 0 13.3483 0Z" fill="var(--fill-0, black)"/>
<path id="Vector_2" d="M17.3569 16.0908C17.1758 16.4149 16.7751 16.5262 16.4619 16.3388L14.862 15.3813V14.5985L15.5169 14.2065L17.1166 15.1636C17.4301 15.3512 17.5373 15.7654 17.3569 16.0908ZM13.7605 13.9399L13.0075 14.3896L12.2538 13.9394V13.0379L13.0075 12.5873L13.7605 13.0379V13.9399ZM12.3523 8.96429C12.3523 8.58876 12.645 8.28523 13.0068 8.28523C13.3686 8.28523 13.6618 8.58876 13.6618 8.96429V10.878L13.0073 11.2695L12.3523 10.878V8.96429ZM11.1521 15.3822L9.5522 16.3388C9.23853 16.5264 8.83832 16.4149 8.65766 16.0908C8.477 15.7656 8.58424 15.3512 8.89746 15.1636L10.4976 14.2065L11.1521 14.5985V15.3822ZM22.5401 18.9618L20.6354 16.6578C20.612 16.6302 20.5844 16.6061 20.5521 16.5863C20.4546 16.5288 20.3402 16.5276 20.2458 16.5749C19.9549 16.7172 19.6035 16.7148 19.3034 16.5355C19.0364 16.377 18.8664 16.1097 18.8134 15.8195H18.8141C18.6795 15.0801 18.2478 14.4039 17.5698 13.9991L16.7169 13.4888L21.5657 10.589L20.9657 9.51149L15.5172 12.7704L14.8622 12.3791V11.5956L20.3107 8.33649L19.7103 7.25925L14.8622 10.1596V9.13978C14.8622 8.32886 14.5128 7.60283 13.9621 7.11333C13.7456 6.92115 13.6084 6.63575 13.6084 6.31625C13.6084 5.95764 13.7817 5.63981 14.0468 5.45073C14.1333 5.38969 14.1897 5.28621 14.1897 5.16962C14.1897 5.13099 14.1833 5.09403 14.1725 5.05946L13.1992 2.19921C13.1721 2.11576 13.0959 2.05615 13.0068 2.05615C12.9178 2.05615 12.842 2.11576 12.8153 2.19921L11.8421 5.05946C11.8306 5.09403 11.8246 5.13099 11.8246 5.16962C11.8246 5.28621 11.881 5.38969 11.967 5.45073H11.9673C12.2324 5.63981 12.4059 5.95764 12.4059 6.31625C12.4059 6.63575 12.2688 6.92115 12.0513 7.11333C11.5006 7.60283 11.1519 8.32886 11.1519 9.13978V10.1596L6.30334 7.25925L5.70268 8.33649L11.1517 11.5956V12.3794L10.4972 12.7702L5.0484 9.51126L4.44842 10.5887L9.29698 13.4886L8.44409 13.9988C7.7661 14.4037 7.33413 15.0799 7.20019 15.8193H7.20042C7.14772 16.1094 6.97765 16.3767 6.71092 16.5353C6.41058 16.7146 6.05939 16.717 5.76827 16.5746C5.67345 16.5274 5.5593 16.5288 5.46218 16.5861C5.42973 16.6058 5.40212 16.6299 5.3791 16.6576L3.47402 18.9609C3.41809 19.0267 3.4059 19.1239 3.45077 19.2055C3.49542 19.2842 3.58287 19.3228 3.66572 19.3063L6.54337 18.7484C6.57813 18.7415 6.61242 18.7284 6.64464 18.7091C6.74221 18.6504 6.79952 18.5488 6.80826 18.4399C6.83404 18.1082 7.01217 17.7932 7.3125 17.6139C7.57854 17.4554 7.886 17.4349 8.15549 17.5331C8.83993 17.783 9.62148 17.7329 10.2988 17.3264L11.1517 16.8176V22.618H12.3521V16.0994L13.007 15.7079L13.6616 16.0994V22.618H14.862V16.8176L15.7146 17.3264C16.3922 17.7329 17.1739 17.783 17.8586 17.5331C18.1274 17.4349 18.4353 17.4554 18.702 17.6139C19.0017 17.7932 19.1796 18.1085 19.2063 18.4399C19.2139 18.5491 19.2721 18.6504 19.3688 18.7091C19.401 18.7281 19.4355 18.7415 19.4703 18.7484L22.3479 19.3063C22.4305 19.3228 22.5187 19.2842 22.5633 19.2055C22.6077 19.1242 22.5958 19.0271 22.5401 18.9618Z" fill="var(--fill-0, black)"/>
<path id="Vector_3" d="M101.378 10.7255H97.0496V2.05615H93.096V24.6741H97.0496V14.7415H101.378V24.6741H105.418V2.05615H101.378V10.7255Z" fill="var(--fill-0, black)"/>
<path id="Vector_4" d="M39.33 2.05615L36.2627 10.8675L33.4863 2.05615H29.4357L33.943 15.9244V24.6741H38.4538V15.4752L43.1264 2.05615H39.33Z" fill="var(--fill-0, black)"/>
<path id="Vector_5" d="M66.4201 12.8153L64.259 2.05615H58.1848V24.6741H61.6678V7.62481L64.6404 22.4462H67.8933L70.529 7.38431V24.6741H74.6136V2.05615H68.2836L66.4201 12.8153Z" fill="var(--fill-0, black)"/>
<path id="Vector_6" d="M112.785 15.6401L114.517 5.52497L116.198 15.6401H112.785ZM118.013 2.05615H111.719L107.472 24.6741H111.239L112.139 19.4109H116.824L117.697 24.6741H121.848L118.013 2.05615Z" fill="var(--fill-0, black)"/>
<path id="Vector_7" d="M82.4129 15.6401L84.0623 5.52497L85.663 15.6401H82.4129ZM81.3979 2.05615L77.3521 24.6741H80.9397L81.7983 19.4109H86.2597L87.0918 24.6741H91.0428L87.3911 2.05615H81.3979Z" fill="var(--fill-0, black)"/>
<path id="Vector_8" d="M47.0703 15.6401L48.8022 5.52497L50.4828 15.6401H47.0703ZM46.0043 2.05615L41.7562 24.6741H45.5235L46.425 19.4109H51.1093L51.9832 24.6741H56.1314L52.2968 2.05615H46.0043Z" fill="var(--fill-0, black)"/>
</g>
</svg>
